<?xml version="1.0" encoding="UTF-8"?><svg id="Layer_2" xmlns="http://www.w3.org/2000/svg" xmlns:xlink="http://www.w3.org/1999/xlink" viewBox="0 0 492.19 377.21"><defs><style>.cls-1{fill:url(#linear-gradient);}.cls-2{fill:#fff;}.cls-3{fill:#b6c6ff;}.cls-4{fill:#c7b6ff;}.cls-5{fill:#6e00ff;}.cls-6{fill:#889efd;}.cls-7{fill:#ff3100;isolation:isolate;opacity:.22;}.cls-8{stroke-width:2px;}.cls-8,.cls-9{fill:none;stroke:#849eff;stroke-miterlimit:10;}.cls-10{fill:url(#linear-gradient-3);}.cls-11{fill:url(#linear-gradient-4);}.cls-12{fill:url(#linear-gradient-2);}</style><linearGradient id="linear-gradient" x1="3730.55" y1="-4928.14" x2="3728.87" y2="-4927.04" gradientTransform="translate(153872.87 12348.26) rotate(154.49) scale(35.82 -15.68)" gradientUnits="userSpaceOnUse"><stop offset="0" stop-color="#fd9a00"/><stop offset="1" stop-color="#ffbf2e"/></linearGradient><linearGradient id="linear-gradient-2" x1="4665.42" y1="-8212.77" x2="4451.85" y2="-8133.23" gradientTransform="translate(9106.3 3266.28) rotate(-100.23)" gradientUnits="userSpaceOnUse"><stop offset="0" stop-color="#3d00fa"/><stop offset="1" stop-color="#1f057e"/></linearGradient><linearGradient id="linear-gradient-3" x1="3518.37" y1="-5216.94" x2="3516.16" y2="-5213.98" gradientTransform="translate(-417202.08 -18215.15) rotate(-43.22) scale(82.93 -57.4)" xlink:href="#linear-gradient-2"/><linearGradient id="linear-gradient-4" x1="315.93" y1="99.63" x2="179.11" y2="232.96" gradientUnits="userSpaceOnUse"><stop offset="0" stop-color="#3d00fa"/><stop offset="1" stop-color="#6e00ff"/></linearGradient></defs><g id="Layer_1-2"><g><path class="cls-3" d="M57.85,177.41s50.03,7.77,93.93,27.01c64.66,28.33,3.66-41.36,3.66-41.36l73.44-44.14s-34.7-1.49-56.57-16.31c-77.07-52.21-123.69,39.77-129.03,52.36-5.34,12.59,14.57,22.43,14.57,22.43Z"/><g><g><path class="cls-6" d="M151.78,204.42c.11,1.96-95.05-27.06-95.05-27.06l8.37-21.29c39.73-2.11,67.17,17.71,78.69,22.48,32.44,17.35,1.12,3.45,10.28,14.53,26.06,.28-2.31,11.08-2.3,11.33Z"/><path class="cls-4" d="M152.28,202.58c-9.16-11.08-14.05-25.2-9.3-39.52,8.59,3.55,16.46,8.66,22.82,14.98-10.42,3.2-13.83,15.47-13.52,24.54Z"/><path id="Path_572" class="cls-1" d="M57.85,177.41L0,182.26l45.06-33.2,21.17,7.06-8.38,21.28Z"/><path id="Path_573" class="cls-7" d="M57.85,177.4L0,182.26l66.23-26.14-8.38,21.28Z"/><path id="Path_578" class="cls-5" d="M45.13,149.07s33.31-92.98,144.24-63.41l-3.14,.7c-49.73,11.09-96.81,31.8-138.59,60.96l-2.52,1.76Z"/><path d="M110.65,143.5c-.94,1.87-2.39,3.53-4.29,4.73-5.61,3.56-13.04,1.89-16.6-3.72-3.56-5.62-1.89-13.05,3.72-16.6,5.62-3.56,13.05-1.89,16.6,3.72,1.01,1.59,1.6,3.34,1.79,5.09,.27,2.33-.16,4.7-1.22,6.78Z"/><path class="cls-2" d="M110.65,143.5c-.71-.14-1.38-.5-1.9-1.08-1.27-1.43-1.14-3.61,.29-4.88,.66-.59,1.48-.87,2.29-.87,.18,0,.36,.01,.54,.05,.27,2.33-.16,4.7-1.22,6.78Z"/><path id="Path_578-2" class="cls-9" d="M45.13,149.07s33.76-58.55,144.47-51.96c0,0-36.09,6.58-58.66,12.39-18.47,4.76-42.95,12.82-83.37,38.04l-2.44,1.52Z"/></g><path id="Path_576" class="cls-12" d="M370.31,377.21c-16.94-74.3-34.92-163.17-67.25-216.41-71.25-117.31-204.81-3.81-126.9,91.08,26.7,32.52,64.93,58.12,105.45,79.2l88.7,46.13Z"/><path id="Path_570" class="cls-10" d="M262.31,121.38l229.88,43.41-251.2,37.7s-24.33-46.92,21.32-81.11Z"/><path class="cls-11" d="M373.23,163.99c.33,14.43-22.91,25.23-33.55,30.47-24.47,12.07-50.44,21.06-77.13,26.69-18.92,4-38.38,6.32-57.6,4.28-19.22-2.04-38.29-8.67-53.16-21.03-2.28-1.9-4.43-3.95-6.42-6.15-9.64-10.66-15.16-24.55-11.04-39.07,.04-.16,.09-.34,.14-.5,5.29-17.73,22.16-33.17,38.09-40.91,37.05-18,82.5-11.79,120.59-.74,21.32,6.17,43.43,14.38,62.19,26.33,6.88,4.39,17.69,11.3,17.9,20.62Z"/><path id="Path_576-2" class="cls-8" d="M415.93,1.51c-73.73,19.27-161.99,40.03-214.18,74.03-115.01,74.91,2.63,204.83,95.02,123.98,31.66-27.71,56.05-66.73,75.84-107.89L415.93,1.51Z"/></g></g></g></svg>