<?xml version="1.0" encoding="UTF-8"?><svg id="Layer_2" xmlns="http://www.w3.org/2000/svg" xmlns:xlink="http://www.w3.org/1999/xlink" viewBox="0 0 377.22 486.77"><defs><style>.cls-1{fill:url(#linear-gradient);}.cls-2{fill:#fff;}.cls-3{fill:#b6c6ff;}.cls-4{fill:#6e00ff;}.cls-5{fill:#889efd;}.cls-6{fill:#ff3100;isolation:isolate;opacity:.22;}.cls-7{stroke-width:2px;}.cls-7,.cls-8{fill:none;stroke:#849eff;stroke-miterlimit:10;}.cls-9{fill:url(#linear-gradient-3);}.cls-10{fill:url(#linear-gradient-4);}.cls-11{fill:url(#linear-gradient-2);}</style><linearGradient id="linear-gradient" x1="4491.6" y1="-5600.58" x2="4489.68" y2="-5599.32" gradientTransform="translate(-99668.47 153571.15) rotate(-28.3) scale(35.82 15.68)" gradientUnits="userSpaceOnUse"><stop offset="0" stop-color="#fd9a00"/><stop offset="1" stop-color="#ffbf2e"/></linearGradient><linearGradient id="linear-gradient-2" x1="14479.87" y1="-521.34" x2="14352.43" y2="-397.14" gradientTransform="translate(14618.92 -706.62) rotate(174.43) scale(1 -1)" gradientUnits="userSpaceOnUse"><stop offset="0" stop-color="#3d00fa"/><stop offset="1" stop-color="#6e00ff"/></linearGradient><linearGradient id="linear-gradient-3" x1="4861.85" y1="-5872.88" x2="4859.2" y2="-5869.31" gradientTransform="translate(268544.44 -451330.83) rotate(160.61) scale(82.93 57.4)" gradientUnits="userSpaceOnUse"><stop offset="0" stop-color="#3d00fa"/><stop offset="1" stop-color="#1f057e"/></linearGradient><linearGradient id="linear-gradient-4" x1="248.06" y1="181.17" x2="52.53" y2="253.99" gradientTransform="matrix(1, 0, 0, 1, 0, 0)" xlink:href="#linear-gradient-3"/></defs><g id="Layer_1-2"><g><path class="cls-3" d="M221.98,174.19s-97.97-65.86,34.24-138.37c26.88-14.74,65.38-21.67,71.04-12.87,12.45,19.37-37.5,83.14-37.5,83.14l14.98,94.33-51.84-7.54-30.92-18.7Z"/><g><path class="cls-5" d="M285.92,136.03c13.95-6.58-18.2,43.63-3.33,45.56,2.24,.29,35.57,5.07,37.8,5.5l-3.74-25.92c-5.46-37.86,.45-76.49,16.97-110.99h0s-25.34-6.65-25.34-6.65c-16.96,17.71-25.97,68.73-22.37,92.5Z"/><path id="Path_572" class="cls-1" d="M333.62,50.18L377.22,0l-61.15,19.19-7.79,24.34,25.34,6.65Z"/><path id="Path_573" class="cls-6" d="M333.62,50.18L377.22,0l-68.94,43.53,25.34,6.65Z"/><path id="Path_578" class="cls-4" d="M316.03,19.26S207.59-12.83,159.9,109.68l2.77-2.43c43.87-38.46,94.84-67.97,150.04-86.86l3.33-1.14Z"/><path d="M279.65,70.97c-4.7,5.98-13.36,7.03-19.34,2.33-2.02-1.59-3.48-3.64-4.34-5.88-.97-2.5-1.19-5.25-.62-7.88,.43-1.97,1.3-3.88,2.63-5.58,4.7-5.99,13.36-7.03,19.34-2.33,5.99,4.69,7.03,13.35,2.33,19.34Z"/><path class="cls-2" d="M258.26,66.4c-.66,.61-1.47,.94-2.29,1.02-.97-2.5-1.19-5.25-.62-7.88,.08,0,.15,0,.23,0,1.06,0,2.13,.43,2.91,1.28,1.48,1.61,1.38,4.11-.23,5.59Z"/><path id="Path_578-2" class="cls-8" d="M316.03,19.26s-76.94-8.39-145.7,98.38c0,0,30.49-28.91,51.12-45.83,16.89-13.85,40.88-31.02,91.53-51.32l3.05-1.22Z"/></g><path class="cls-11" d="M187.73,345.06c62.64-13.59,126.87-56.6,142.32-111.81,8.73-31.17-2.67-64.51-23.49-88.53-1.48-1.71-3.01-3.37-4.59-4.99-10.48-10.73-24.04-19.16-39.07-22.64-2.28-.53-4.6-.95-6.95-1.24-40.44-5.04-69.21,19.78-87.73,51.31-3.28,5.59,5.24,125.59,2.11,156.36-3.24,31.88,1.75,24.93,17.4,21.54Z"/><path id="Path_570" class="cls-9" d="M172.78,263.89l-87.73,222.88L266.09,215.39c-29.05,17.24-61.91,33.34-93.3,48.5Z"/><path id="Path_576" class="cls-10" d="M0,298.97c69.7-3.18,152.69-4.94,205.92-25.41,117.28-45.13,36.73-183.92-61.43-129.15-33.64,18.77-62.93,49.06-88.5,82.14L0,298.97Z"/><path id="Path_576-2" class="cls-7" d="M54.79,367.24c62.82-30.38,138.41-64.68,179.26-104.46,90.03-87.67-38.68-183.52-107.33-94.52-23.52,30.51-38.52,69.88-49,110.36l-22.94,88.62Z"/></g></g></svg>