<?xml version="1.0" encoding="UTF-8"?><svg id="Layer_2" xmlns="http://www.w3.org/2000/svg" xmlns:xlink="http://www.w3.org/1999/xlink" viewBox="0 0 355.68 457.1"><defs><style>.cls-1{fill:url(#linear-gradient);}.cls-2{fill:#fff;}.cls-3{fill:#b6c6ff;}.cls-4{fill:#6e00ff;}.cls-5{fill:#889efd;}.cls-6{fill:#ff3100;isolation:isolate;opacity:.22;}.cls-7{stroke-width:2px;}.cls-7,.cls-8{fill:none;stroke:#849eff;stroke-miterlimit:10;}.cls-9{fill:url(#linear-gradient-3);}.cls-10{fill:url(#linear-gradient-4);}.cls-11{fill:url(#linear-gradient-2);}</style><linearGradient id="linear-gradient" x1="266.1" y1="169.65" x2="138.66" y2="293.85" gradientUnits="userSpaceOnUse"><stop offset="0" stop-color="#3d00fa"/><stop offset="1" stop-color="#6e00ff"/></linearGradient><linearGradient id="linear-gradient-2" x1="4906.44" y1="-4905.69" x2="4904.52" y2="-4904.43" gradientTransform="translate(189927.72 27075.49) rotate(164.46) scale(35.82 -15.68)" gradientUnits="userSpaceOnUse"><stop offset="0" stop-color="#fd9a00"/><stop offset="1" stop-color="#ffbf2e"/></linearGradient><linearGradient id="linear-gradient-3" x1="258.14" y1="224.91" x2="108.5" y2="208.95" gradientUnits="userSpaceOnUse"><stop offset="0" stop-color="#3d00fa"/><stop offset="1" stop-color="#1f057e"/></linearGradient><linearGradient id="linear-gradient-4" x1="4684.83" y1="-5311.08" x2="4683" y2="-5308.63" gradientTransform="translate(-304103.79 -388368.45) rotate(13.82) scale(82.93 -57.4)" xlink:href="#linear-gradient-3"/></defs><g id="Layer_1-2"><g><path class="cls-3" d="M130.95,21.67S241.51,0,201.22,138.15c-26.21,89.87-79.77-10.75-79.77-10.75L57.4,59.81l40.07-29.9,33.48-8.25Z"/><g><path class="cls-5" d="M142.8,106.42c-14.62,4.92-27.3,14.62-36.69,26.32-1.41,1.76-2.77,3.56-4.08,5.41l-35.83-43.83,13.67-22.35c24.5,1.02,49.07,14.81,62.93,34.45Z"/><path class="cls-1" d="M310.13,320.39c-72.64,24.53-193.93-17.21-222.89-91.85-11.71-30.18-3.6-64.46,14.79-90.39,1.31-1.85,2.67-3.65,4.08-5.41,9.39-11.7,22.07-21.4,36.69-26.32,2.22-.75,4.49-1.39,6.8-1.91,58.83-13.23,98.59,41.09,116.53,87.88,5.13,13.37,51.09,125.61,44,128Z"/><path id="Path_572" class="cls-11" d="M66.2,94.31L0,88.32l57.4-28.52,22.48,12.16-13.67,22.34Z"/><path id="Path_573" class="cls-6" d="M66.2,94.31L0,88.32l79.87-16.36-13.67,22.34Z"/><path id="Path_578" class="cls-4" d="M57.47,59.83S113.46-38.43,232.72,16.9l-3.68,.17c-58.28,2.65-115.48,16.67-168.38,41.28l-3.19,1.48Z"/><path d="M135.09,60.21c-1.06,7.53-8.03,12.78-15.57,11.71-7.53-1.06-12.78-8.03-11.71-15.56,1.06-7.53,8.03-12.78,15.56-11.72,2.13,.3,4.08,1.08,5.76,2.21,2.24,1.5,3.98,3.63,5.02,6.1,.93,2.22,1.3,4.71,.94,7.26Z"/><path class="cls-2" d="M134.15,52.95c-.65,.52-1.46,.84-2.36,.86-2.19,.05-4-1.69-4.04-3.87v-.09c0-1.2,.53-2.27,1.38-3,2.24,1.5,3.98,3.63,5.02,6.1Z"/><path id="Path_576" class="cls-9" d="M328.68,334.77c-65.43-24.23-143.96-51.14-188.44-86.83-98-78.65,20.94-186.38,97.79-104.35,26.34,28.12,45.03,65.87,59.33,105.16l31.31,86.02Z"/><path id="Path_570" class="cls-10" d="M301.51,324.77l54.17,132.33-151.74-171.55c30.59,14.34,64.85,27.18,97.57,39.22Z"/><path id="Path_576-2" class="cls-7" d="M299.24,359.45c-60.13-35.4-132.68-75.74-170.15-118.72-82.58-94.72,53.5-179.76,114.68-85.45,20.96,32.32,32.7,72.78,39.84,113.98l15.64,90.2Z"/><path id="Path_578-2" class="cls-8" d="M57.47,59.83S107.16,.48,230.7,29.86c0,0-42.01,.27-68.61,2.35-21.77,1.7-50.98,5.94-101.57,26.38l-3.05,1.23Z"/></g></g></g></svg>