<?xml version="1.0" encoding="UTF-8"?><svg id="Layer_2" xmlns="http://www.w3.org/2000/svg" xmlns:xlink="http://www.w3.org/1999/xlink" viewBox="0 0 296.34 457.1"><defs><style>.cls-1{fill:url(#linear-gradient);}.cls-2{fill:#fff;}.cls-3{fill:#b6c6ff;}.cls-4{fill:#6e00ff;}.cls-5{fill:#889efd;}.cls-6{fill:#ff3100;isolation:isolate;opacity:.22;}.cls-7{stroke-width:2px;}.cls-7,.cls-8{fill:none;stroke:#849eff;stroke-miterlimit:10;}.cls-9{fill:url(#linear-gradient-3);}.cls-10{fill:url(#linear-gradient-4);}.cls-11{fill:url(#linear-gradient-2);}</style><linearGradient id="linear-gradient" x1="4292.48" y1="-4883.73" x2="4290.56" y2="-4882.47" gradientTransform="translate(168711.75 32636.99) rotate(164.46) scale(35.82 -15.68)" gradientUnits="userSpaceOnUse"><stop offset="0" stop-color="#fd9a00"/><stop offset="1" stop-color="#ffbf2e"/></linearGradient><linearGradient id="linear-gradient-2" x1="13879.22" y1="169.65" x2="13751.78" y2="293.85" gradientTransform="translate(13968.8) rotate(-180) scale(1 -1)" gradientUnits="userSpaceOnUse"><stop offset="0" stop-color="#3d00fa"/><stop offset="1" stop-color="#6e00ff"/></linearGradient><linearGradient id="linear-gradient-3" x1="13871.26" y1="224.91" x2="13721.61" y2="208.95" gradientTransform="translate(13968.8) rotate(-180) scale(1 -1)" gradientUnits="userSpaceOnUse"><stop offset="0" stop-color="#3d00fa"/><stop offset="1" stop-color="#1f057e"/></linearGradient><linearGradient id="linear-gradient-4" x1="4251.82" y1="-5238.11" x2="4249.99" y2="-5235.66" gradientTransform="translate(270590.01 -375723.9) rotate(166.18) scale(82.93 57.4)" xlink:href="#linear-gradient-3"/></defs><g id="Layer_1-2"><g><path class="cls-3" d="M193.93,20.48s110.56-21.67,70.27,116.48c-26.21,89.87-79.77-10.75-79.77-10.75L120.38,58.62l40.07-29.9,33.48-8.25Z"/><g><g><path class="cls-5" d="M204.29,106.42c-14.62,4.92-27.3,14.62-36.69,26.32-1.41,1.76-2.77,3.56-4.08,5.41l-35.83-43.83,13.67-22.35c24.5,1.02,49.07,14.81,62.93,34.45Z"/><path id="Path_572" class="cls-1" d="M127.69,94.31l-66.2-5.99,57.4-28.52,22.48,12.16-13.67,22.34Z"/><path id="Path_573" class="cls-6" d="M127.69,94.31l-66.2-5.99,79.87-16.36-13.67,22.34Z"/><path id="Path_578" class="cls-4" d="M118.96,59.83s55.99-98.26,175.24-42.93l-3.68,.17c-58.28,2.65-115.48,16.67-168.38,41.28l-3.19,1.48Z"/><path d="M196.57,60.21c-1.06,7.53-8.03,12.78-15.56,11.71-7.54-1.06-12.78-8.03-11.72-15.56s8.03-12.78,15.57-11.72c2.13,.3,4.08,1.08,5.76,2.21,2.23,1.5,3.98,3.64,5.02,6.11,.93,2.21,1.29,4.7,.93,7.25Z"/><path class="cls-2" d="M195.64,52.96c-.65,.51-1.47,.83-2.37,.85-2.18,.05-3.99-1.69-4.04-3.87v-.07c0-1.21,.54-2.29,1.39-3.02,2.23,1.5,3.98,3.64,5.02,6.11Z"/><path id="Path_578-2" class="cls-8" d="M118.96,59.83S168.64,.48,292.18,29.86c0,0-42.01,.27-68.61,2.35-21.77,1.7-50.98,5.94-101.57,26.38l-3.05,1.23Z"/></g><path class="cls-11" d="M45.55,320.39c72.64,24.53,193.93-17.21,222.89-91.85,11.71-30.18,3.6-64.46-14.79-90.39-1.31-1.85-2.67-3.65-4.08-5.41-9.39-11.7-22.07-21.4-36.69-26.32-2.22-.75-4.49-1.39-6.8-1.91-58.83-13.23-98.59,41.09-116.53,87.88-5.13,13.37-51.09,125.61-44,128Z"/><path id="Path_576" class="cls-9" d="M27,334.77c65.43-24.23,143.96-51.14,188.44-86.83,98-78.65-20.94-186.38-97.79-104.35-26.34,28.12-45.03,65.87-59.33,105.16l-31.31,86.02Z"/><path id="Path_570" class="cls-10" d="M54.17,324.77L0,457.1l151.74-171.55c-30.59,14.34-64.85,27.18-97.57,39.22Z"/><path id="Path_576-2" class="cls-7" d="M56.44,359.45c60.13-35.4,132.68-75.74,170.15-118.72,82.58-94.72-53.5-179.76-114.68-85.45-20.96,32.32-32.7,72.78-39.84,113.98l-15.64,90.2Z"/></g></g></g></svg>