<svg id="Layer_1" data-name="Layer 1" xmlns="http://www.w3.org/2000/svg" viewBox="0 0 68.21 18.07"><defs><style>.cls-1{fill:#4500ed;}.cls-2{fill:#ffbc00;}.cls-3{fill:#3a00aa;}</style></defs><title>20h_logo</title><path class="cls-1" d="M1.06,1.08A21.81,21.81,0,0,0,1,4.41a20.77,20.77,0,0,0,.06,3.3,23.08,23.08,0,0,0,3.36,0,22.61,22.61,0,0,0,3.36,0s0-.11,0-.34A6.79,6.79,0,0,0,5.8,3,7.81,7.81,0,0,0,4.51,2,7,7,0,0,0,1.7,1C1.18,1,1.12,1,1.06,1.08Z" transform="translate(-1 -1)"/><path class="cls-2" d="M9.41,1.09c-.05,0-.06.11,0,.38a6,6,0,0,0,1.83,3.9,6.05,6.05,0,0,0,3.89,1.75c.44,0,.39.39.39-3,0-2.89,0-3-.06-3a24,24,0,0,0-3-.05A16.17,16.17,0,0,0,9.41,1.09Z" transform="translate(-1 -1)"/><path class="cls-3" d="M20.75,1.59c-.06.07-.07,13.74,0,13.8a15.76,15.76,0,0,0,2.38,0s0-.9.05-2.84V9.76l.09-.27a1.59,1.59,0,0,1,1.14-1.12,2,2,0,0,1,1.4.12,1.68,1.68,0,0,1,.91,1.13,18.3,18.3,0,0,1,.07,3c0,1.91,0,2.77.05,2.81a15.62,15.62,0,0,0,2.37,0,16.45,16.45,0,0,0,0-3.13c0-3.4,0-3.21-.23-3.9a3.1,3.1,0,0,0-.65-1.09,3.42,3.42,0,0,0-2.65-1,3.41,3.41,0,0,0-2.2.67c-.17.12-.2.13-.27.1l-.09,0V5.19c0-1.76,0-1.78-.09-2a2.22,2.22,0,0,0-.58-.92,2.17,2.17,0,0,0-1-.59A1.46,1.46,0,0,0,20.75,1.59Z" transform="translate(-1 -1)"/><path class="cls-3" d="M39.8,1.58s0,1.43,0,6.91c0,6.26,0,6.9.06,6.92s2.28,0,2.35,0,.05-.58.05-5.94c0-6.6,0-6.08-.24-6.63a2.46,2.46,0,0,0-1.46-1.2A2.12,2.12,0,0,0,39.8,1.58Z" transform="translate(-1 -1)"/><path class="cls-3" d="M62.59,1.59a2.07,2.07,0,0,0-.72.25,2.4,2.4,0,0,0-1.12,1.32l-.1.29V9.39c0,5.58,0,6,.06,6a15.49,15.49,0,0,0,2.36,0,18.3,18.3,0,0,0,0-2V11.49l1.18,1.39,1.67,2,.49.58h1.32a5,5,0,0,0,1.37,0,.2.2,0,0,0,.06-.09A1.53,1.53,0,0,0,69,15l-1.9-2.25-1.76-2.08c0-.05.18-.32,1.68-2.1.95-1.12,1.73-2.06,1.74-2.09s0-.08-.06-.12-.16-.06-1.33-.06a6.13,6.13,0,0,0-1.33,0s-.72.8-1.51,1.74L63.12,9.82V5.73c0-2.94,0-4.1,0-4.13S62.88,1.55,62.59,1.59Z" transform="translate(-1 -1)"/><path class="cls-3" d="M47.07,6.24a4,4,0,0,0-3,1.62,4.52,4.52,0,0,0-.86,2,3.8,3.8,0,0,0-.08,1,4.62,4.62,0,0,0,.24,1.68,4.22,4.22,0,0,0,3.28,3,5.75,5.75,0,0,0,1.55,0,3.28,3.28,0,0,0,1.7-.88l.15-.15v.44c0,.39,0,.43.06.47a16.87,16.87,0,0,0,2.36,0s0-1.08,0-4.51V6.41l-.1,0a9.72,9.72,0,0,0-1.19,0c-.94,0-1.11,0-1.14.06a2.16,2.16,0,0,0,0,.48v.43l-.22-.2A3.47,3.47,0,0,0,47.07,6.24Zm1.48,2.41a2,2,0,0,1,.9.58,2.21,2.21,0,0,1,.51.91,3.68,3.68,0,0,1,0,1.44,2.23,2.23,0,0,1-1.38,1.55,3,3,0,0,1-1.37.06,2.16,2.16,0,0,1-1.57-1.43A2.6,2.6,0,0,1,46,9.42a2.09,2.09,0,0,1,1.51-.87A3,3,0,0,1,48.55,8.65Z" transform="translate(-1 -1)"/><path class="cls-3" d="M58.8,6.31a3.65,3.65,0,0,0-1.84,1,4.24,4.24,0,0,0-.44.5l-.13.2V6.41l-.09,0a17.35,17.35,0,0,0-2.28,0l-.09,0v4.47c0,3.43,0,4.48,0,4.51a15.76,15.76,0,0,0,2.38,0s0-.79.05-2.35c0-2.58,0-2.54.27-3.07a2.81,2.81,0,0,1,2.61-1.43l.34,0V7.42a4.35,4.35,0,0,0-.05-1.14A1.35,1.35,0,0,0,58.8,6.31Z" transform="translate(-1 -1)"/><path class="cls-3" d="M29.56,6.38c-.07,0-.08,0-.07.13s.8,2.07,1.75,4.49S33,15.41,33,15.43s-.31.8-.68,1.73-.68,1.74-.68,1.78a.14.14,0,0,0,.07.1,9.48,9.48,0,0,0,1.12,0c1,0,1.07,0,1.13-.06s1-2.49,2.56-6.3L39,6.47l-.08-.07c-.07-.05-.16-.06-1.18-.06-.61,0-1.14,0-1.19,0a18.47,18.47,0,0,0-1.2,2.83C34.72,10.74,34.21,12,34.2,12s-.51-1.26-1.11-2.77L32,6.41a4.24,4.24,0,0,0-1.19-.06A12,12,0,0,0,29.56,6.38Z" transform="translate(-1 -1)"/><path class="cls-3" d="M1,8.73s0,1.14,0,3.32c0,3.2,0,3.24.07,3.31s.11.07,3.36.07h3.3l0-.08c0-.07,0-.14,0-.49A6.81,6.81,0,0,0,1.94,8.71l-.62,0C1.11,8.67,1.07,8.68,1,8.73Z" transform="translate(-1 -1)"/><path class="cls-1" d="M8.74,8.71s0,.82,0,3.32a21.3,21.3,0,0,0,.06,3.35,26.18,26.18,0,0,0,3.36,0,26.22,26.22,0,0,0,3.35,0,3.64,3.64,0,0,0-.09-1.27A6.8,6.8,0,0,0,9.53,8.7,1.83,1.83,0,0,0,8.74,8.71Z" transform="translate(-1 -1)"/></svg>