<svg id="Layer_1" data-name="Layer 1" xmlns="http://www.w3.org/2000/svg" viewBox="0 0 155 41.07"><defs><style>.cls-1{fill:#4500ed;}.cls-2{fill:#ffbc00;}.cls-3{fill:#3a00aa;}</style></defs><title>40h_logo</title><path class="cls-1" d="M.13,1.17C0,1.33,0,2.18,0,8.74s0,7.4.13,7.51.9.12,7.64.12,7.53,0,7.64-.12.12-.24.08-.78a15.37,15.37,0,0,0-4.58-10A19,19,0,0,0,8,3.17,16.32,16.32,0,0,0,1.58,1.08C.4,1,.27,1,.13,1.17Z" transform="translate(0 -1)"/><path class="cls-2" d="M19.11,1.21c-.11.12-.13.24-.08.85a13.58,13.58,0,0,0,4.14,8.87,13.76,13.76,0,0,0,8.84,4c1,.08.91.89.91-6.9,0-6.55,0-6.71-.15-6.82s-1.19-.11-6.84-.11C19.74,1.08,19.24,1.08,19.11,1.21Z" transform="translate(0 -1)"/><path class="cls-3" d="M44.88,2.35c-.14.15-.15,31.21,0,31.35a33.56,33.56,0,0,0,5.4,0c.07-.07.1-2,.11-6.45l0-6.33.2-.61a3.64,3.64,0,0,1,2.6-2.54,4.45,4.45,0,0,1,3.19.26,3.77,3.77,0,0,1,2.07,2.57c.12.43.14,1,.16,6.73,0,4.35,0,6.3.11,6.37a32.09,32.09,0,0,0,5.37,0c.13-.08.14-.53.11-7.11,0-7.72,0-7.29-.53-8.84a6.85,6.85,0,0,0-1.49-2.5,7.75,7.75,0,0,0-6-2.34,7.88,7.88,0,0,0-5,1.52c-.37.28-.45.31-.61.23l-.19-.08,0-4.05c0-4,0-4-.21-4.55a5,5,0,0,0-1.31-2.1,4.85,4.85,0,0,0-2.18-1.36A3.21,3.21,0,0,0,44.88,2.35Z" transform="translate(0 -1)"/><path class="cls-3" d="M88.17,2.31c-.08,0-.11,3.25-.11,15.72,0,14.21,0,15.67.13,15.72s5.19.06,5.35,0,.12-1.31.12-13.51c0-15,0-13.82-.56-15.06a5.59,5.59,0,0,0-3.3-2.72A5.49,5.49,0,0,0,88.17,2.31Z" transform="translate(0 -1)"/><path class="cls-3" d="M140,2.34a4.87,4.87,0,0,0-1.64.57,5.35,5.35,0,0,0-2.54,3l-.22.65,0,13.52c0,12.67,0,13.53.12,13.62a33.31,33.31,0,0,0,5.38,0,42.91,42.91,0,0,0,.1-4.47l0-4.37L143.84,28c1.47,1.74,3.19,3.75,3.8,4.47l1.13,1.33h3c2.62,0,3,0,3.11-.13a.39.39,0,0,0,.13-.2,3.14,3.14,0,0,0-.42-.56l-4.31-5.11-4-4.73c-.08-.12.41-.73,3.82-4.77,2.15-2.56,3.93-4.7,4-4.76s0-.17-.14-.26-.37-.14-3-.14a15.93,15.93,0,0,0-3,.1c-.1,0-1.64,1.83-3.43,4l-3.26,3.87,0-9.3c0-6.7,0-9.32-.1-9.4S140.62,2.24,140,2.34Z" transform="translate(0 -1)"/><path class="cls-3" d="M104.7,12.92a9.15,9.15,0,0,0-6.8,3.67,10.6,10.6,0,0,0-2,4.52,9.11,9.11,0,0,0-.18,2.32,10.38,10.38,0,0,0,.55,3.82A9.55,9.55,0,0,0,103.76,34a12.21,12.21,0,0,0,3.52,0,7.36,7.36,0,0,0,3.87-2l.33-.33v1c0,.89,0,1,.15,1.07a38.14,38.14,0,0,0,5.35,0c.07-.07.1-2.46.1-10.25V13.3l-.22-.09a21.48,21.48,0,0,0-2.72-.05c-2.12,0-2.52,0-2.58.14a4.83,4.83,0,0,0-.08,1.09v1l-.49-.46A7.84,7.84,0,0,0,104.7,12.92Zm3.37,5.46a4.42,4.42,0,0,1,2,1.33,4.82,4.82,0,0,1,1.15,2.06,8,8,0,0,1,0,3.27,5,5,0,0,1-3.13,3.53,6.76,6.76,0,0,1-3.11.14,4.87,4.87,0,0,1-3.56-3.25,6,6,0,0,1,.71-5.34,4.87,4.87,0,0,1,3.44-2A7.66,7.66,0,0,1,108.07,18.38Z" transform="translate(0 -1)"/><path class="cls-3" d="M131.36,13.07a8.07,8.07,0,0,0-4.19,2.2,9.43,9.43,0,0,0-1,1.13l-.31.47,0-1.79V13.29l-.21-.07a44.76,44.76,0,0,0-5.18,0l-.21.08V23.45c0,7.79,0,10.18.1,10.25a33.56,33.56,0,0,0,5.4,0c.07-.07.1-1.78.12-5.33,0-5.87,0-5.76.61-7,1-2,2.9-3,5.94-3.23l.76-.06v-2.5a12.62,12.62,0,0,0-.09-2.59A3.09,3.09,0,0,0,131.36,13.07Z" transform="translate(0 -1)"/><path class="cls-3" d="M64.89,13.23c-.14,0-.17.11-.15.29s1.82,4.7,4,10.21,4,10,4,10.06S72,35.6,71.15,37.73s-1.53,3.94-1.53,4a.32.32,0,0,0,.15.24,22.72,22.72,0,0,0,2.55.07c2.18,0,2.42,0,2.56-.13s2.37-5.68,5.81-14.33l5.66-14.18-.18-.15c-.16-.13-.37-.14-2.68-.14-1.38,0-2.59,0-2.7.07s-.55,1-2.74,6.43c-1.41,3.49-2.58,6.32-2.61,6.29s-1.16-2.86-2.51-6.29-2.49-6.3-2.53-6.35-.56-.11-2.69-.13A26.44,26.44,0,0,0,64.89,13.23Z" transform="translate(0 -1)"/><path class="cls-3" d="M.08,18.57C0,18.67,0,21.17,0,26.1c0,7.28,0,7.38.16,7.54s.26.16,7.65.16H15.3l.11-.19c.11-.16.11-.32,0-1.12a15.47,15.47,0,0,0-13.32-14c-.46-.05-1.08-.11-1.4-.11C.25,18.42.15,18.45.08,18.57Z" transform="translate(0 -1)"/><path class="cls-1" d="M17.6,18.52c-.07.07-.1,1.86-.1,7.56,0,6.68,0,7.48.13,7.59s.91.13,7.63.13,7.53,0,7.62-.12a8.27,8.27,0,0,0-.19-2.88,15.49,15.49,0,0,0-13.3-12.29A4,4,0,0,0,17.6,18.52Z" transform="translate(0 -1)"/></svg>