<?xml version="1.0" encoding="utf-8"?>
<!-- Generator: Adobe Illustrator 26.5.0, SVG Export Plug-In . SVG Version: 6.00 Build 0)  -->
<svg version="1.1" xmlns="http://www.w3.org/2000/svg" xmlns:xlink="http://www.w3.org/1999/xlink" x="0px" y="0px"
	 viewBox="0 0 355 72.9" style="enable-background:new 0 0 355 72.9;" xml:space="preserve">
<style type="text/css">
	.st0{fill:#3A00AA;}
	.st1{fill:#6F5AF6;}
	.st2{font-family:'Avenir-Roman';}
	.st3{font-size:41px;}
	.st4{fill:#FFBC00;}
</style>
<g id="Layer_1">
	<path class="st0" d="M28.6,20c-0.1,0.1-0.2,31.2,0,31.4c1.8,0.1,3.6,0.1,5.4,0c0.1-0.1,0.1-2,0.1-6.5v-6.3l0.2-0.6
		c0.4-1.2,1.3-2.2,2.6-2.5c1.1-0.3,2.2-0.2,3.2,0.3c1,0.5,1.8,1.4,2.1,2.6c0.1,0.4,0.1,1,0.2,6.7c0,4.3,0,6.3,0.1,6.4
		c1.8,0.2,3.6,0.2,5.4,0c0.1-0.1,0.1-0.5,0.1-7.1c0-7.7,0-7.3-0.5-8.8c-0.3-0.9-0.8-1.8-1.5-2.5c-1.6-1.6-3.8-2.5-6-2.3
		c-1.8-0.1-3.6,0.5-5,1.5c-0.4,0.3-0.5,0.3-0.6,0.2l-0.2-0.1v-4.1c0-4,0-4-0.2-4.6c-0.3-0.8-0.7-1.5-1.3-2.1
		c-0.6-0.6-1.3-1.1-2.2-1.4C29.9,19.9,29.2,19.9,28.6,20z"/>
	<path class="st0" d="M71.9,20c-0.1,0-0.1,3.2-0.1,15.7c0,14.2,0,15.7,0.1,15.7s5.2,0.1,5.3,0s0.1-1.3,0.1-13.5
		c0-15,0-13.8-0.6-15.1c-0.7-1.3-1.9-2.3-3.3-2.7C73,20,72.5,19.9,71.9,20z"/>
	<path class="st0" d="M123.8,20c-0.6,0.1-1.1,0.3-1.6,0.6c-1.2,0.6-2.1,1.7-2.5,3l-0.2,0.6v13.5c0,12.7,0,13.5,0.1,13.6
		c1.8,0.1,3.6,0.1,5.4,0c0.1-1.5,0.1-3,0.1-4.5v-4.4l2.6,3.1c1.5,1.7,3.2,3.8,3.8,4.5l1.1,1.3h3c2.6,0,3,0,3.1-0.1
		c0.1-0.1,0.1-0.1,0.1-0.2c-0.1-0.2-0.3-0.4-0.4-0.6l-4.3-5.1l-4-4.7c-0.1-0.1,0.4-0.7,3.8-4.8c2.1-2.6,3.9-4.7,4-4.8
		c0.1-0.1,0-0.2-0.1-0.3s-0.4-0.1-3-0.1c-1-0.1-2,0-3,0.1c-0.1,0-1.6,1.8-3.4,4l-3.3,3.9v-9.3c0-6.7,0-9.3-0.1-9.4
		S124.4,19.9,123.8,20z"/>
	<path class="st0" d="M88.5,30.6c-2.7,0.2-5.2,1.5-6.8,3.7c-1,1.3-1.7,2.9-2,4.5c-0.2,0.8-0.2,1.5-0.2,2.3c-0.1,1.3,0.1,2.6,0.6,3.8
		c1,3.5,3.9,6.1,7.5,6.8c1.2,0.2,2.4,0.2,3.5,0c1.5-0.3,2.8-1,3.9-2l0.3-0.3v1c0,0.9,0,1,0.2,1.1c1.8,0.1,3.6,0.1,5.3,0
		c0.1-0.1,0.1-2.5,0.1-10.2V30.9l-0.2-0.1c-0.9-0.1-1.8-0.1-2.7-0.1c-2.1,0-2.5,0-2.6,0.1c-0.1,0.4-0.1,0.7-0.1,1.1v1l-0.5-0.5
		C93,31,90.7,30.3,88.5,30.6z M91.8,36c0.8,0.3,1.5,0.7,2,1.3c0.5,0.6,0.9,1.3,1.2,2.1c0.2,1.1,0.2,2.2,0,3.3
		c-0.4,1.6-1.6,3-3.1,3.5c-1,0.3-2.1,0.3-3.1,0.1c-1.7-0.4-3-1.6-3.6-3.2c-0.6-1.8-0.4-3.8,0.7-5.3c0.8-1.1,2.1-1.9,3.4-2
		C90.2,35.7,91,35.8,91.8,36z"/>
	<path class="st0" d="M115.1,30.7c-1.6,0.3-3,1.1-4.2,2.2c-0.4,0.3-0.7,0.7-1,1.1l-0.3,0.5v-1.8v-1.8l-0.2-0.1
		c-1.7-0.1-3.5-0.1-5.2,0l-0.2,0.1v10.1c0,7.8,0,10.2,0.1,10.2c1.8,0.1,3.6,0.1,5.4,0c0.1-0.1,0.1-1.8,0.1-5.3c0-5.9,0-5.8,0.6-7
		c1-2,2.9-3,5.9-3.2l0.8-0.1v-2.5c0.1-0.9,0-1.7-0.1-2.6C116.3,30.5,115.7,30.5,115.1,30.7z"/>
	<path class="st0" d="M48.6,30.9c-0.1,0-0.2,0.1-0.2,0.3s1.8,4.7,4,10.2s4,10,4,10.1s-0.7,1.8-1.6,3.9s-1.5,3.9-1.5,4
		c0,0.1,0.1,0.2,0.2,0.2c0.8,0.1,1.7,0.1,2.6,0.1c2.2,0,2.4,0,2.6-0.1s2.4-5.7,5.8-14.3L70.1,31l-0.2-0.1c-0.2-0.1-0.4-0.1-2.7-0.1
		c-1.4,0-2.6,0-2.7,0.1s-0.6,1-2.7,6.4c-1.4,3.5-2.6,6.3-2.6,6.3c0,0-1.2-2.9-2.5-6.3s-2.5-6.3-2.5-6.4c0,0-0.6-0.1-2.7-0.1
		C50.5,30.8,49.6,30.8,48.6,30.9z"/>
</g>
<g id="Layer_2">
	<text transform="matrix(1 0 0 1 142.6443 51.7746)" class="st1 st2 st3">highlights</text>
	<circle class="st4" cx="170.4" cy="24.5" r="5.8"/>
	<circle class="st4" cx="237.7" cy="24.5" r="5.8"/>
</g>
</svg>
