<?xml version="1.0" encoding="utf-8"?>
<!-- Generator: Adobe Illustrator 26.1.0, SVG Export Plug-In . SVG Version: 6.00 Build 0)  -->
<svg version="1.1" id="Layer_1" xmlns="http://www.w3.org/2000/svg" xmlns:xlink="http://www.w3.org/1999/xlink" x="0px" y="0px"
	 viewBox="0 0 500 497.7" style="enable-background:new 0 0 500 497.7;" xml:space="preserve">
<style type="text/css">
	.st0{fill:#F2EEFF;}
	.st1{fill:#FFF9E9;}
	.st2{fill:#FFFFFF;}
</style>
<path class="st0" d="M1.9,2.6C0.2,5,0,17.9,0,117.5c0,100.3,0.2,112.2,1.9,113.9s13.8,1.9,115.9,1.9c103.9,0,114.3-0.1,116.1-1.9
	c1.6-1.7,1.8-3.6,1.2-11.7c-4.8-59.9-27.8-110.2-69.5-151.9C154.8,57,134.2,40.8,121.2,33C93.1,16.2,57.7,4.6,24,1.2
	C6.1-0.6,4.1-0.5,1.9,2.6z"/>
<path class="st1" d="M290,3.2c-1.7,1.8-1.9,3.6-1.2,12.9c3.6,51.3,24.9,97,62.8,134.6c36.3,35.9,81,56,134.1,60.3
	c15.3,1.3,13.8,13.5,13.8-104.6c0-99.4,0-101.9-2.3-103.6c-2-1.4-18.1-1.7-103.7-1.7C299.6,1.2,291.9,1.3,290,3.2z"/>
<path class="st2" d="M1.2,266.7C0.4,268.2,0,306,0,381c0,110.4,0,112,2.4,114.3s4,2.4,116.1,2.4h113.7l1.8-2.9
	c1.6-2.4,1.7-4.8,0.6-16.9c-9.6-109.1-93.9-197.4-202.2-211.9c-6.9-0.8-16.4-1.7-21.2-1.7C3.8,264.4,2.3,264.8,1.2,266.7z"/>
<path class="st0" d="M267.1,265.8c-1.1,1.1-1.4,28.2-1.4,114.8c0,101.5,0.2,113.5,1.9,115.2s13.8,1.9,115.8,1.9
	c101.1,0,114.3-0.2,115.6-1.8c2.3-2.8,0.7-26.8-2.9-43.7c-9.7-46.1-30.9-85.9-63.2-118.6c-37.2-37.6-86-61.5-138.5-68
	C280.8,263.9,268.9,264,267.1,265.8z"/>
</svg>
