<svg
    id="Layer_1"
    data-name="Layer 1"
    xmlns="http://www.w3.org/2000/svg"
    viewBox="0 0 500 497.71"
>
    <defs>
        <style>
            .cls-1{fill:#4500ed;}
            .cls-2{fill:#ffbc00;}
            .cls-3{fill:#3a00aa;}
        </style>
    </defs>
    <title>
        hylark_circle
    </title>
    <path
        class="cls-1 block-1"
        d="M1.91,2.63C.24,5,0,17.94,0,117.49,0,217.76.24,229.72,1.91,231.4s13.76,1.91,115.94,1.91c103.86,0,114.27-.12,116.06-1.91,1.56-1.68,1.8-3.59,1.2-11.73-4.79-59.94-27.76-110.2-69.52-151.95C154.83,57,134.25,40.8,121.2,33,93.09,16.27,57.67,4.66,24.05,1.19,6.1-.6,4.07-.48,1.91,2.63Z"
        transform="translate(0 -0.02)"
    />
    <path
        class="cls-2"
        d="M290,3.23c-1.68,1.79-1.92,3.59-1.2,12.92,3.59,51.33,24.89,97,62.82,134.6Q406,204.6,485.77,211.06c15.32,1.31,13.76,13.52,13.76-104.58,0-99.43,0-101.94-2.27-103.61-2-1.44-18.07-1.68-103.74-1.68C299.6,1.19,291.94,1.31,290,3.23Z"
        transform="translate(0 -0.02)"
    />
    <path
        class="cls-3"
        d="M1.2,266.69C.36,268.25,0,306.06,0,381,0,491.39,0,493,2.39,495.34s4,2.39,116.06,2.39H232.12l1.79-2.87c1.56-2.39,1.68-4.78.6-16.87-9.57-109.12-93.92-197.42-202.2-211.9-6.94-.83-16.4-1.67-21.18-1.67C3.83,264.42,2.27,264.78,1.2,266.69Z"
        transform="translate(0 -0.02)"
    />
    <path
        class="cls-1"
        d="M267.06,265.85c-1.08,1.08-1.44,28.24-1.44,114.75,0,101.46.24,113.54,1.91,115.22s13.76,1.91,115.82,1.91c101.11,0,114.27-.24,115.58-1.79,2.28-2.75.72-26.8-2.87-43.67-9.69-46.07-30.87-85.91-63.17-118.57a235.46,235.46,0,0,0-138.55-68C280.82,263.94,268.85,264.06,267.06,265.85Z"
        transform="translate(0 -0.02)"
    />
</svg>
