<?xml version="1.0" encoding="UTF-8"?><svg id="Layer_1" xmlns="http://www.w3.org/2000/svg" xmlns:xlink="http://www.w3.org/1999/xlink" viewBox="0 0 120 31.81"><defs><style>.cls-1{fill:none;}.cls-2{clip-path:url(#clippath);}.cls-3{fill:#ffe044;}.cls-4{fill:#b7adfb;}.cls-5{fill:#8472f8;}.cls-6{clip-path:url(#clippath-1);}.cls-7{clip-path:url(#clippath-4);}.cls-8{clip-path:url(#clippath-3);}.cls-9{clip-path:url(#clippath-2);}</style><clipPath id="clippath"><rect class="cls-1" width="120" height="31.8"/></clipPath><clipPath id="clippath-1"><rect class="cls-1" width="120" height="31.8"/></clipPath><clipPath id="clippath-2"><rect class="cls-1" width="120" height="31.8"/></clipPath><clipPath id="clippath-3"><rect class="cls-1" width="120" height="31.8"/></clipPath><clipPath id="clippath-4"><rect class="cls-1" width="120" height="31.8"/></clipPath></defs><g class="cls-2"><g id="Group_35"><g id="Group_29"><path id="Path_22" class="cls-5" d="M45.62,25.41h3.9c.1,0,.2-.1,.2-.2V15.71c0-4.9-3.3-6.5-6.2-6.5-1.5,0-2.9,.4-4.1,1.4-.1,.1-.2,.1-.3,0,0,0-.1-.1-.1-.2V5.11c0-2.3-1.8-4.1-4.1-4.1-.1,0-.2,.1-.2,.2V25.12c0,.1,.1,.2,.2,.2h3.9c.1,0,.2-.1,.2-.2h0v-8.9c0-2.8,1.9-3.5,3.2-3.5,1.2,0,3.2,.7,3.2,3.5v8.9c0,.2,.1,.3,.2,.3"/></g><g id="Group_30"><path id="Path_23" class="cls-5" d="M58.11,31.61l8.7-21.8c.1-.1,0-.3-.1-.3h-4.1c-.1-.1-.2,0-.2,.1l-4,9.8-3.9-9.8c0-.1-.1-.2-.2-.2h-4c-.1,0-.2,.1-.2,.2v.1l6.2,15.6-2.4,6.2c-.1,.1,0,.3,.1,.3h3.8c.1,0,.2-.1,.3-.2"/></g><g id="Group_31"><path id="Path_24" class="cls-5" d="M90.42,9.41h-3.9c-.1,0-.2,.1-.2,.2h0v1.5c-1.1-1.3-2.8-2-4.6-1.9-4.4,0-7.6,3.4-7.6,8.2s3.2,8.3,7.6,8.3c1.7,.1,3.4-.6,4.6-1.9v1.4c0,.1,.1,.2,.2,.2h3.9c.1,0,.2-.1,.2-.2V9.71c.1-.2,0-.3-.2-.3m-8.1,12.2c-2.2,.1-4-1.7-4-3.8v-.3c-.1-2.2,1.5-4,3.7-4.2h.3c2.1-.1,3.9,1.7,4,3.8v.4c.2,2.1-1.5,4-3.6,4.2-.1-.1-.2-.1-.4-.1"/></g><g id="Group_32"><path id="Path_25" class="cls-5" d="M103.07,13.22v-3.8c0-.1-.1-.2-.2-.2h0c-2.2,.1-4.2,1.2-5.4,3.1v-2.6c0-.1-.1-.2-.2-.2h-3.9c-.1,0-.2,.1-.2,.2h0v15.5c0,.1,.1,.2,.2,.2h3.9c.1,0,.2-.1,.2-.2h0v-7.1c0-4.6,4.1-4.8,5.6-4.9"/></g><g id="Group_33"><path id="Path_26" class="cls-5" d="M113.19,17.02l6-7.2c.1-.1,.1-.3,0-.3,0,0-.1-.1-.2-.1h-4.4q-.1,0-.2,.1l-5.1,6V1.22c0-.1-.1-.2-.2-.2-2.3,0-4.1,1.8-4.1,4.1V25.22c0,.1,.1,.2,.2,.2h3.9c.1,0,.2-.1,.2-.2h0v-6.7l5.8,6.9c0,.1,.1,.1,.2,.1h4.5c.1,0,.2-.1,.2-.2s0-.1-.1-.2l-6.7-8.1Z"/></g><g id="Group_34"><path id="Path_27" class="cls-5" d="M72.32,25.41h-3.9c-.1,0-.2-.1-.2-.2h0V1.22c0-.1,.1-.2,.2-.2,2.3,0,4.1,1.8,4.1,4.1V25.22c0,.1-.1,.2-.2,.2"/></g></g></g><g class="cls-6"><path class="cls-5" d="M.5,.2c-.1,.1-.1,.8-.1,5.9s0,5.8,.1,5.9c.1,.1,.7,.1,6,.1s5.9,0,6-.1c.1-.1,.1-.2,.1-.6-.2-3.1-1.4-5.7-3.6-7.9-.6-.5-1.7-1.3-2.4-1.7C5.2,.9,3.3,.3,1.6,.1,.7,0,.6,.1,.5,.2Z"/></g><g class="cls-9"><path class="cls-3" d="M15.3,.2c-.1,.1-.1,.2-.1,.7,.2,2.7,1.3,5,3.2,7,1.9,1.9,4.2,2.9,6.9,3.1,.8,.1,.7,.7,.7-5.4,0-5.1,0-5.3-.1-5.4-.1-.1-.9-.1-5.4-.1-4.7,0-5.1,0-5.2,.1Z"/></g><g class="cls-8"><path class="cls-4" d="M.4,13.9c0,.1-.1,2-.1,5.9,0,5.7,0,5.8,.1,5.9,.2,.1,.3,.1,6.1,.1h5.9l.1-.1c.1-.1,.1-.2,0-.9-.5-5.6-4.9-10.2-10.5-11-.4,0-.8-.1-1.1-.1s-.4,.1-.5,.2Z"/></g><g class="cls-7"><path class="cls-5" d="M14.2,13.8c-.1,.1-.1,1.5-.1,5.9,0,5.2,0,5.9,.1,6s.7,.1,6,.1,5.9,0,6-.1,0-1.4-.1-2.3c-.5-2.4-1.6-4.4-3.3-6.1-1.9-1.9-4.4-3.2-7.2-3.5-.7-.1-1.3-.1-1.4,0Z"/></g></svg>