<?xml version="1.0" encoding="utf-8"?>
<!-- Generator: Adobe Illustrator 26.5.0, SVG Export Plug-In . SVG Version: 6.00 Build 0)  -->
<svg version="1.1" xmlns="http://www.w3.org/2000/svg" xmlns:xlink="http://www.w3.org/1999/xlink" x="0px" y="0px"
	 viewBox="0 0 120 32" style="enable-background:new 0 0 120 32;" xml:space="preserve">
<style type="text/css">
	.st0{display:none;}
	.st1{display:inline;}
	.st2{clip-path:url(#SVGID_00000105410995365632540440000010157790246435676058_);}
	.st3{fill:#8472F8;}
	.st4{clip-path:url(#SVGID_00000098209471342961161200000011501484660966347918_);fill:#8472F8;}
	.st5{clip-path:url(#SVGID_00000018951496320487211660000004990734031609750931_);fill:#FFE044;}
	.st6{clip-path:url(#SVGID_00000003090332023753164180000000780185681625632940_);fill:#B7ADFB;}
	.st7{clip-path:url(#SVGID_00000078019275721030639230000011535060528739065779_);fill:#8472F8;}
	.st8{clip-path:url(#SVGID_00000142863982544452242360000009247265641301336209_);}
	.st9{fill:#B7ADFB;}
	.st10{clip-path:url(#SVGID_00000003098406490192254830000004976211096062771383_);fill:#B7ADFB;}
	.st11{clip-path:url(#SVGID_00000140712997826515679540000018357390979159299977_);fill:#FFEE96;}
	.st12{clip-path:url(#SVGID_00000059991819585422586010000003535736738127029416_);fill:#DDD8FD;}
	.st13{clip-path:url(#SVGID_00000049930140917642637020000009764699568595902139_);fill:#B7ADFB;}
</style>
<g id="Layer_1" class="st0">
	<g class="st1">
		<g>
			<defs>
				<rect id="SVGID_1_" x="-0.2" y="0.2" width="120" height="31.8"/>
			</defs>
			<clipPath id="SVGID_00000166660833297608282000000007490922145030251677_">
				<use xlink:href="#SVGID_1_"  style="overflow:visible;"/>
			</clipPath>
			<g id="Group_35" style="clip-path:url(#SVGID_00000166660833297608282000000007490922145030251677_);">
				<g id="Group_29" transform="translate(43.016 1.215)">
					<path id="Path_22" class="st3" d="M2.4,24.4h3.9c0.1,0,0.2-0.1,0.2-0.2v-9.5c0-4.9-3.3-6.5-6.2-6.5c-1.5,0-2.9,0.4-4.1,1.4
						c-0.1,0.1-0.2,0.1-0.3,0c0,0-0.1-0.1-0.1-0.2V4.1C-4.2,1.8-6,0-8.3,0c-0.1,0-0.2,0.1-0.2,0.2v23.9c0,0.1,0.1,0.2,0.2,0.2l0,0
						h3.9c0.1,0,0.2-0.1,0.2-0.2l0,0v-8.9c0-2.8,1.9-3.5,3.2-3.5c1.2,0,3.2,0.7,3.2,3.5v8.9C2.2,24.3,2.3,24.4,2.4,24.4"/>
				</g>
				<g id="Group_30" transform="translate(62.206 11.714)">
					<path id="Path_23" class="st3" d="M-4.3,20.1L4.4-1.7C4.5-1.8,4.4-2,4.3-2H4.2h-4C0.1-2.1,0-2,0-1.9l-4,9.8l-3.9-9.8
						C-7.9-2-8-2.1-8.1-2.1h-4c-0.1,0-0.2,0.1-0.2,0.2v0.1l6.2,15.6L-8.5,20c-0.1,0.1,0,0.3,0.1,0.3h0.1h3.7
						C-4.5,20.3-4.4,20.2-4.3,20.1"/>
				</g>
				<g id="Group_31" transform="translate(92.017 11.411)">
					<path id="Path_24" class="st3" d="M-1.8-1.8h-3.9c-0.1,0-0.2,0.1-0.2,0.2l0,0v1.5C-7-1.4-8.7-2.1-10.5-2
						c-4.4,0-7.6,3.4-7.6,8.2s3.2,8.3,7.6,8.3c1.7,0.1,3.4-0.6,4.6-1.9V14c0,0.1,0.1,0.2,0.2,0.2h3.9c0.1,0,0.2-0.1,0.2-0.2V-1.5
						C-1.5-1.7-1.6-1.8-1.8-1.8 M-9.9,10.4c-2.2,0.1-4-1.7-4-3.8c0-0.1,0-0.2,0-0.3c-0.1-2.2,1.5-4,3.7-4.2c0.1,0,0.2,0,0.3,0
						C-7.8,2-6,3.8-5.9,5.9c0,0.1,0,0.2,0,0.4c0.2,2.1-1.5,4-3.6,4.2C-9.6,10.4-9.7,10.4-9.9,10.4"/>
				</g>
				<g id="Group_32" transform="translate(115.567 11.422)">
					<path id="Path_25" class="st3" d="M-12.7,2v-3.8c0-0.1-0.1-0.2-0.2-0.2l0,0c-2.2,0.1-4.2,1.2-5.4,3.1v-2.6
						c0-0.1-0.1-0.2-0.2-0.2l0,0h-3.9c-0.1,0-0.2,0.1-0.2,0.2l0,0V14c0,0.1,0.1,0.2,0.2,0.2l0,0h3.9c0.1,0,0.2-0.1,0.2-0.2l0,0V6.9
						C-18.3,2.3-14.2,2.1-12.7,2"/>
				</g>
				<g id="Group_33" transform="translate(130.287 1.215)">
					<path id="Path_26" class="st3" d="M-17.3,16l6-7.2c0.1-0.1,0.1-0.3,0-0.3c0,0-0.1-0.1-0.2-0.1h-4.4c-0.1,0-0.1,0-0.2,0.1
						l-5.1,6V0.2c0-0.1-0.1-0.2-0.2-0.2c-2.3,0-4.1,1.8-4.1,4.1v20.1c0,0.1,0.1,0.2,0.2,0.2l0,0h3.9c0.1,0,0.2-0.1,0.2-0.2l0,0v-6.7
						l5.8,6.9c0,0.1,0.1,0.1,0.2,0.1h4.5c0.1,0,0.2-0.1,0.2-0.2s0-0.1-0.1-0.2L-17.3,16z"/>
				</g>
				<g id="Group_34" transform="translate(84.617 1.215)">
					<path id="Path_27" class="st3" d="M-12.5,24.4h-3.9c-0.1,0-0.2-0.1-0.2-0.2l0,0v-24c0-0.1,0.1-0.2,0.2-0.2
						c2.3,0,4.1,1.8,4.1,4.1v20.1C-12.3,24.3-12.4,24.4-12.5,24.4"/>
				</g>
			</g>
		</g>
		<g>
			<defs>
				<rect id="SVGID_00000114052264515268117420000017388083329577605304_" x="-0.2" y="0.2" width="120" height="31.8"/>
			</defs>
			<clipPath id="SVGID_00000099664009081881547860000007519175045022736009_">
				<use xlink:href="#SVGID_00000114052264515268117420000017388083329577605304_"  style="overflow:visible;"/>
			</clipPath>
			<path style="clip-path:url(#SVGID_00000099664009081881547860000007519175045022736009_);fill:#8472F8;" d="M0.3,0.4
				C0.2,0.5,0.2,1.2,0.2,6.3c0,5.2,0,5.8,0.1,5.9s0.7,0.1,6,0.1c5.4,0,5.9,0,6-0.1c0.1-0.1,0.1-0.2,0.1-0.6C12.2,8.5,11,5.9,8.8,3.7
				C8.2,3.2,7.1,2.4,6.4,2C5,1.1,3.1,0.5,1.4,0.3C0.5,0.2,0.4,0.3,0.3,0.4z"/>
		</g>
		<g>
			<defs>
				<rect id="SVGID_00000134962154103760575620000002495386980425629105_" x="-0.2" y="0.2" width="120" height="31.8"/>
			</defs>
			<clipPath id="SVGID_00000018921860435906653650000016017041928912547235_">
				<use xlink:href="#SVGID_00000134962154103760575620000002495386980425629105_"  style="overflow:visible;"/>
			</clipPath>
			<path style="clip-path:url(#SVGID_00000018921860435906653650000016017041928912547235_);fill:#FFE044;" d="M15.1,0.4
				C15,0.5,15,0.6,15,1.1c0.2,2.7,1.3,5,3.2,7c1.9,1.9,4.2,2.9,6.9,3.1c0.8,0.1,0.7,0.7,0.7-5.4c0-5.1,0-5.3-0.1-5.4
				s-0.9-0.1-5.4-0.1C15.6,0.3,15.2,0.3,15.1,0.4z"/>
		</g>
		<g>
			<defs>
				<rect id="SVGID_00000004517752711737335320000002586360661621425040_" x="-0.2" y="0.2" width="120" height="31.8"/>
			</defs>
			<clipPath id="SVGID_00000031191387767178437910000003718836836486286512_">
				<use xlink:href="#SVGID_00000004517752711737335320000002586360661621425040_"  style="overflow:visible;"/>
			</clipPath>
			<path style="clip-path:url(#SVGID_00000031191387767178437910000003718836836486286512_);fill:#B7ADFB;" d="M0.2,14.1
				c0,0.1-0.1,2-0.1,5.9c0,5.7,0,5.8,0.1,5.9C0.4,26,0.5,26,6.3,26h5.9l0.1-0.1c0.1-0.1,0.1-0.2,0-0.9c-0.5-5.6-4.9-10.2-10.5-11
				c-0.4,0-0.8-0.1-1.1-0.1C0.4,13.9,0.3,14,0.2,14.1z"/>
		</g>
		<g>
			<defs>
				<rect id="SVGID_00000124128856187640299010000015331954542238446730_" x="-0.2" y="0.2" width="120" height="31.8"/>
			</defs>
			<clipPath id="SVGID_00000178175495560158816230000005817006288163692708_">
				<use xlink:href="#SVGID_00000124128856187640299010000015331954542238446730_"  style="overflow:visible;"/>
			</clipPath>
			<path style="clip-path:url(#SVGID_00000178175495560158816230000005817006288163692708_);fill:#8472F8;" d="M14,14
				c-0.1,0.1-0.1,1.5-0.1,5.9c0,5.2,0,5.9,0.1,6s0.7,0.1,6,0.1c5.2,0,5.9,0,6-0.1s0-1.4-0.1-2.3c-0.5-2.4-1.6-4.4-3.3-6.1
				c-1.9-1.9-4.4-3.2-7.2-3.5C14.7,13.9,14.1,13.9,14,14z"/>
		</g>
	</g>
</g>
<g id="Layer_2">
	<g>
		<g>
			<defs>
				<rect id="SVGID_00000106113269602433353170000003311492207729499834_" x="-0.2" y="0.2" width="120" height="31.8"/>
			</defs>
			<clipPath id="SVGID_00000005966537414454852660000004940203191453766292_">
				<use xlink:href="#SVGID_00000106113269602433353170000003311492207729499834_"  style="overflow:visible;"/>
			</clipPath>
			
				<g id="Group_35_00000108274416213348007520000001629729485307624109_" style="clip-path:url(#SVGID_00000005966537414454852660000004940203191453766292_);">
				<g id="Group_29_00000180358065830984920670000004504058118476368293_" transform="translate(43.016 1.215)">
					<path id="Path_22_00000173159399794583324000000015928046850672331455_" class="st9" d="M2.4,24.4h3.9c0.1,0,0.2-0.1,0.2-0.2
						v-9.5c0-4.9-3.3-6.5-6.2-6.5c-1.5,0-2.9,0.4-4.1,1.4c-0.1,0.1-0.2,0.1-0.3,0c0,0-0.1-0.1-0.1-0.2V4.1C-4.2,1.8-6,0-8.3,0
						c-0.1,0-0.2,0.1-0.2,0.2v23.9c0,0.1,0.1,0.2,0.2,0.2l0,0h3.9c0.1,0,0.2-0.1,0.2-0.2l0,0v-8.9c0-2.8,1.9-3.5,3.2-3.5
						c1.2,0,3.2,0.7,3.2,3.5v8.9C2.2,24.3,2.3,24.4,2.4,24.4"/>
				</g>
				<g id="Group_30_00000110467335532108271010000000211907567436936633_" transform="translate(62.206 11.714)">
					<path id="Path_23_00000041293376523961226820000000780922909172581537_" class="st9" d="M-4.3,20.1L4.4-1.7
						C4.5-1.8,4.4-2,4.3-2H4.2h-4C0.1-2.1,0-2,0-1.9l-4,9.8l-3.9-9.8C-7.9-2-8-2.1-8.1-2.1h-4c-0.1,0-0.2,0.1-0.2,0.2v0.1l6.2,15.6
						L-8.5,20c-0.1,0.1,0,0.3,0.1,0.3h0.1h3.7C-4.5,20.3-4.4,20.2-4.3,20.1"/>
				</g>
				<g id="Group_31_00000090976867910463225620000005641415465194060708_" transform="translate(92.017 11.411)">
					<path id="Path_24_00000127743034094335133250000007362341698204493210_" class="st9" d="M-1.8-1.8h-3.9c-0.1,0-0.2,0.1-0.2,0.2
						l0,0v1.5C-7-1.4-8.7-2.1-10.5-2c-4.4,0-7.6,3.4-7.6,8.2s3.2,8.3,7.6,8.3c1.7,0.1,3.4-0.6,4.6-1.9V14c0,0.1,0.1,0.2,0.2,0.2h3.9
						c0.1,0,0.2-0.1,0.2-0.2V-1.5C-1.5-1.7-1.6-1.8-1.8-1.8 M-9.9,10.4c-2.2,0.1-4-1.7-4-3.8c0-0.1,0-0.2,0-0.3
						c-0.1-2.2,1.5-4,3.7-4.2c0.1,0,0.2,0,0.3,0C-7.8,2-6,3.8-5.9,5.9c0,0.1,0,0.2,0,0.4c0.2,2.1-1.5,4-3.6,4.2
						C-9.6,10.4-9.7,10.4-9.9,10.4"/>
				</g>
				<g id="Group_32_00000017500065372873783210000007030259916506832033_" transform="translate(115.567 11.422)">
					<path id="Path_25_00000045616123891704421690000014473247638963991209_" class="st9" d="M-12.7,2v-3.8c0-0.1-0.1-0.2-0.2-0.2
						l0,0c-2.2,0.1-4.2,1.2-5.4,3.1v-2.6c0-0.1-0.1-0.2-0.2-0.2l0,0h-3.9c-0.1,0-0.2,0.1-0.2,0.2l0,0V14c0,0.1,0.1,0.2,0.2,0.2l0,0
						h3.9c0.1,0,0.2-0.1,0.2-0.2l0,0V6.9C-18.3,2.3-14.2,2.1-12.7,2"/>
				</g>
				<g id="Group_33_00000115504167439385518150000004381801903786278815_" transform="translate(130.287 1.215)">
					<path id="Path_26_00000162325047176371480680000017505095230711423897_" class="st9" d="M-17.3,16l6-7.2c0.1-0.1,0.1-0.3,0-0.3
						c0,0-0.1-0.1-0.2-0.1h-4.4c-0.1,0-0.1,0-0.2,0.1l-5.1,6V0.2c0-0.1-0.1-0.2-0.2-0.2c-2.3,0-4.1,1.8-4.1,4.1v20.1
						c0,0.1,0.1,0.2,0.2,0.2l0,0h3.9c0.1,0,0.2-0.1,0.2-0.2l0,0v-6.7l5.8,6.9c0,0.1,0.1,0.1,0.2,0.1h4.5c0.1,0,0.2-0.1,0.2-0.2
						s0-0.1-0.1-0.2L-17.3,16z"/>
				</g>
				<g id="Group_34_00000170239331464425304740000002009888507077558204_" transform="translate(84.617 1.215)">
					<path id="Path_27_00000088827033697976742570000004182758940426696064_" class="st9" d="M-12.5,24.4h-3.9
						c-0.1,0-0.2-0.1-0.2-0.2l0,0v-24c0-0.1,0.1-0.2,0.2-0.2c2.3,0,4.1,1.8,4.1,4.1v20.1C-12.3,24.3-12.4,24.4-12.5,24.4"/>
				</g>
			</g>
		</g>
		<g>
			<defs>
				<rect id="SVGID_00000168079855674467268920000000006578085971192713_" x="-0.2" y="0.2" width="120" height="31.8"/>
			</defs>
			<clipPath id="SVGID_00000105407125513349235500000006053561183072144802_">
				<use xlink:href="#SVGID_00000168079855674467268920000000006578085971192713_"  style="overflow:visible;"/>
			</clipPath>
			<path style="clip-path:url(#SVGID_00000105407125513349235500000006053561183072144802_);fill:#B7ADFB;" d="M0.3,0.4
				C0.2,0.5,0.2,1.2,0.2,6.3c0,5.2,0,5.8,0.1,5.9s0.7,0.1,6,0.1c5.4,0,5.9,0,6-0.1c0.1-0.1,0.1-0.2,0.1-0.6C12.2,8.5,11,5.9,8.8,3.7
				C8.2,3.2,7.1,2.4,6.4,2C5,1.1,3.1,0.5,1.4,0.3C0.5,0.2,0.4,0.3,0.3,0.4z"/>
		</g>
		<g>
			<defs>
				<rect id="SVGID_00000159451115885762279990000014906937460827756951_" x="-0.2" y="0.2" width="120" height="31.8"/>
			</defs>
			<clipPath id="SVGID_00000090252589298656846980000000684005688705765293_">
				<use xlink:href="#SVGID_00000159451115885762279990000014906937460827756951_"  style="overflow:visible;"/>
			</clipPath>
			<path style="clip-path:url(#SVGID_00000090252589298656846980000000684005688705765293_);fill:#FFEE96;" d="M15.1,0.4
				C15,0.5,15,0.6,15,1.1c0.2,2.7,1.3,5,3.2,7c1.9,1.9,4.2,2.9,6.9,3.1c0.8,0.1,0.7,0.7,0.7-5.4c0-5.1,0-5.3-0.1-5.4
				s-0.9-0.1-5.4-0.1C15.6,0.3,15.2,0.3,15.1,0.4z"/>
		</g>
		<g>
			<defs>
				<rect id="SVGID_00000040563170693010793260000001561014407970250673_" x="-0.2" y="0.2" width="120" height="31.8"/>
			</defs>
			<clipPath id="SVGID_00000049200359041589130500000009886537803747325828_">
				<use xlink:href="#SVGID_00000040563170693010793260000001561014407970250673_"  style="overflow:visible;"/>
			</clipPath>
			<path style="clip-path:url(#SVGID_00000049200359041589130500000009886537803747325828_);fill:#DDD8FD;" d="M0.2,14.1
				c0,0.1-0.1,2-0.1,5.9c0,5.7,0,5.8,0.1,5.9C0.4,26,0.5,26,6.3,26h5.9l0.1-0.1c0.1-0.1,0.1-0.2,0-0.9c-0.5-5.6-4.9-10.2-10.5-11
				c-0.4,0-0.8-0.1-1.1-0.1C0.4,13.9,0.3,14,0.2,14.1z"/>
		</g>
		<g>
			<defs>
				<rect id="SVGID_00000062187506018034719280000010801527499851562428_" x="-0.2" y="0.2" width="120" height="31.8"/>
			</defs>
			<clipPath id="SVGID_00000013909893916979016340000011561601287990546342_">
				<use xlink:href="#SVGID_00000062187506018034719280000010801527499851562428_"  style="overflow:visible;"/>
			</clipPath>
			<path style="clip-path:url(#SVGID_00000013909893916979016340000011561601287990546342_);fill:#B7ADFB;" d="M14,14
				c-0.1,0.1-0.1,1.5-0.1,5.9c0,5.2,0,5.9,0.1,6s0.7,0.1,6,0.1c5.2,0,5.9,0,6-0.1s0-1.4-0.1-2.3c-0.5-2.4-1.6-4.4-3.3-6.1
				c-1.9-1.9-4.4-3.2-7.2-3.5C14.7,13.9,14.1,13.9,14,14z"/>
		</g>
	</g>
</g>
</svg>
