<?xml version="1.0" encoding="UTF-8"?><svg id="Layer_2" xmlns="http://www.w3.org/2000/svg" xmlns:xlink="http://www.w3.org/1999/xlink" viewBox="0 0 224.39 307.12"><defs><style>.cls-1{fill:url(#linear-gradient);}.cls-2{fill:#0071ff;}.cls-3{fill:#ff5862;}.cls-4{fill:#fff;}.cls-5{fill:#ffc251;}.cls-6{fill:#b6c6ff;}.cls-7{fill:#44d2bb;}.cls-8{fill:#6e00ff;}.cls-9{fill:#889efd;}.cls-10{fill:#651fff;}.cls-11{fill:#ff3100;isolation:isolate;opacity:.22;}.cls-12{stroke-width:.72px;}.cls-12,.cls-13,.cls-14{fill:none;}.cls-12,.cls-14{stroke:#849eff;stroke-miterlimit:10;}.cls-13{stroke:#381bf1;stroke-width:.91px;}.cls-15{fill:url(#linear-gradient-3);}.cls-16{fill:url(#linear-gradient-4);}.cls-17{fill:url(#linear-gradient-2);}.cls-14{stroke-width:.36px;}</style><linearGradient id="linear-gradient" x1="-2306.08" y1="102.87" x2="-2306.78" y2="102.41" gradientTransform="translate(-79107.01 23712.31) rotate(164.46) scale(35.82 15.68)" gradientUnits="userSpaceOnUse"><stop offset="0" stop-color="#fd9a00"/><stop offset="1" stop-color="#ffbf2e"/></linearGradient><linearGradient id="linear-gradient-2" x1="1155.88" y1="248.54" x2="1109.71" y2="203.56" gradientTransform="translate(1193.43 310) rotate(-180)" gradientUnits="userSpaceOnUse"><stop offset="0" stop-color="#3d00fa"/><stop offset="1" stop-color="#6e00ff"/></linearGradient><linearGradient id="linear-gradient-3" x1="1152.99" y1="228.54" x2="1098.79" y2="234.32" gradientTransform="translate(1193.43 310) rotate(-180)" gradientUnits="userSpaceOnUse"><stop offset="0" stop-color="#3d00fa"/><stop offset="1" stop-color="#1f057e"/></linearGradient><linearGradient id="linear-gradient-4" x1="-2226.8" y1="167.89" x2="-2227.46" y2="167" gradientTransform="translate(-181614.44 34914.75) rotate(166.18) scale(82.93 -57.4)" gradientUnits="userSpaceOnUse"><stop offset="0" stop-color="#3d00fa"/><stop offset="1" stop-color="#1f057e"/></linearGradient></defs><g id="Layer_1-2"><g><g><path class="cls-6" d="M75.35,7.42S115.4-.43,100.81,49.61c-9.49,32.55-28.89-3.89-28.89-3.89l-23.2-24.48,14.51-10.83,12.13-2.99h0Z"/><g><g><path class="cls-9" d="M79.1,38.54c-5.3,1.78-9.89,5.3-13.29,9.53-.51,.64-1,1.29-1.48,1.96l-12.98-15.88,4.95-8.1c8.87,.37,17.77,5.36,22.79,12.48h.01Z"/><path id="Path_572" class="cls-1" d="M51.36,34.16l-23.98-2.17,20.79-10.33,8.14,4.4-4.95,8.09h0Z"/><path id="Path_573" class="cls-11" d="M51.36,34.16l-23.98-2.17,28.93-5.92-4.95,8.09Z"/><path id="Path_578" class="cls-8" d="M48.2,21.67S68.48-13.92,111.67,6.12l-1.33,.06c-21.11,.96-41.83,6.04-60.99,14.95,0,0-1.15,.54-1.15,.54Z"/><path d="M76.31,21.81c-.38,2.73-2.91,4.63-5.64,4.24-2.73-.38-4.63-2.91-4.25-5.64s2.91-4.63,5.64-4.25c.77,.11,1.48,.39,2.09,.8,.81,.54,1.44,1.32,1.82,2.21,.34,.8,.47,1.7,.34,2.63h0Z"/><path class="cls-4" d="M75.97,19.18c-.24,.18-.53,.3-.86,.31-.79,.02-1.45-.61-1.46-1.4v-.03c0-.44,.2-.83,.5-1.09,.81,.54,1.44,1.32,1.82,2.21Z"/><path id="Path_578-2" class="cls-14" d="M48.2,21.67S66.19,.17,110.94,10.82c0,0-15.22,.1-24.85,.85-7.89,.62-18.46,2.15-36.79,9.56l-1.1,.45h0Z"/></g><path class="cls-17" d="M21.61,116.05c26.31,8.88,70.24-6.23,80.73-33.27,4.24-10.93,1.3-23.35-5.36-32.74-.47-.67-.97-1.32-1.48-1.96-3.4-4.24-7.99-7.75-13.29-9.53-.8-.27-1.63-.5-2.46-.69-21.31-4.79-35.71,14.88-42.21,31.83-1.86,4.84-18.5,45.5-15.94,46.36h0Z"/><path id="Path_576" class="cls-15" d="M14.89,121.25c23.7-8.78,52.14-18.52,68.25-31.45,35.5-28.49-7.58-67.51-35.42-37.8-9.54,10.18-16.31,23.86-21.49,38.09,0,0-11.34,31.16-11.34,31.16Z"/><path id="Path_570" class="cls-16" d="M24.73,117.63L5.11,165.56l54.96-62.14c-11.08,5.19-23.49,9.84-35.34,14.21Z"/><path id="Path_576-2" class="cls-12" d="M25.55,130.2c21.78-12.82,48.06-27.43,61.63-43,29.91-34.31-19.38-65.11-41.54-30.95-7.59,11.71-11.84,26.36-14.43,41.29l-5.66,32.67h0Z"/></g></g><g id="Mask_Group_4"><g id="Group_283"><g id="Group_280"><path id="Path_382" class="cls-3" d="M221.22,243.02c-59.95-1.65-108.23-49.94-109.88-109.9-.03-1.72,1.33-3.13,3.05-3.17h106.9c1.71,0,3.1,1.39,3.1,3.1h0v106.85c0,1.72-1.39,3.11-3.11,3.12h-.06"/></g><g id="Group_281"><path id="Path_385" class="cls-13" d="M195.51,303.78c-1.51-60.97-50.67-110.11-111.63-111.63-1.57-.02-2.87,1.24-2.89,2.81v108.88c0,1.56,1.26,2.82,2.82,2.83h108.85c1.57,0,2.85-1.27,2.85-2.84v-.05"/></g><g id="Group_282"><path id="Path_386" class="cls-7" d="M209.43,58.86c-.98,38.85-32.25,70.11-71.1,71.1-1,0-1.83-.79-1.84-1.79V58.82c0-.99,.8-1.8,1.8-1.8h69.33c1,0,1.81,.81,1.81,1.81v.03"/></g><circle id="Ellipse_64" class="cls-5" cx="78.49" cy="143.68" r="32.85"/><path id="Subtraction_14" class="cls-2" d="M80.99,225.68c0,5.47-.55,10.92-1.64,16.28-1.07,5.2-2.65,10.28-4.71,15.17-2.04,4.81-4.54,9.41-7.46,13.73-2.91,4.3-6.22,8.3-9.89,11.97s-7.69,6.98-11.99,9.89c-4.33,2.93-8.94,5.44-13.76,7.48-4.9,2.08-9.99,3.67-15.21,4.76-5.37,1.11-10.84,1.68-16.33,1.71V144.69c5.49,.02,10.96,.59,16.33,1.71,5.21,1.08,10.31,2.68,15.21,4.76,4.82,2.05,9.42,4.55,13.76,7.49,4.3,2.91,8.31,6.22,11.98,9.89,3.67,3.67,6.98,7.68,9.89,11.97,2.93,4.33,5.43,8.92,7.47,13.73,2.07,4.89,3.65,9.97,4.72,15.17,1.09,5.36,1.64,10.81,1.64,16.28h-.01Z"/><path id="Subtraction_17" class="cls-10" d="M192.47,275c0,2.14,.21,4.27,.64,6.36,.83,4.04,2.45,7.88,4.76,11.3,5.9,8.73,15.73,13.97,26.26,14v-63.33c-2.15,0-4.28,.23-6.39,.67-10.2,2.12-18.72,9.11-22.8,18.7-.81,1.91-1.43,3.9-1.84,5.93-.43,2.09-.64,4.23-.64,6.37h.01Z"/></g></g></g></g></svg>