<?xml version="1.0" encoding="utf-8"?>
<!-- Generator: Adobe Illustrator 28.2.0, SVG Export Plug-In . SVG Version: 6.00 Build 0)  -->
<svg version="1.1" id="Layer_2_00000169553284457130035400000000412296377544492677_"
	 xmlns="http://www.w3.org/2000/svg" xmlns:xlink="http://www.w3.org/1999/xlink" x="0px" y="0px" viewBox="0 0 265.3 368.2"
	 style="enable-background:new 0 0 265.3 368.2;" xml:space="preserve">
<style type="text/css">
	.st0{fill:#FA5862;}
	.st1{fill:none;stroke:#381BF1;stroke-width:1.07;}
	.st2{fill:#3671FF;}
	.st3{fill:#FBC251;}
	.st4{fill:#651FFF;}
	.st5{fill:#B6C6FF;}
	.st6{fill:#889EFD;}
	.st7{fill:#C7B6FF;}
	.st8{fill:url(#Path_572_00000129181479159713263610000005031167113702869633_);}
	.st9{opacity:0.22;fill:#FF3100;enable-background:new    ;}
	.st10{fill:#6E00FF;}
	.st11{fill:#FFFFFF;}
	.st12{fill:none;stroke:#849EFF;stroke-width:0.29;stroke-miterlimit:10;}
	.st13{fill:url(#Path_576_00000039106143857492731090000002745164620680094140_);}
	.st14{fill:url(#Path_570_00000073719325786195893220000000822058817682813862_);}
	.st15{fill:url(#SVGID_1_);}
	.st16{fill:none;stroke:#849EFF;stroke-width:0.59;stroke-miterlimit:10;}
</style>
<g id="Layer_1-2">
	<g>
		<path id="Path_29" class="st0" d="M201.8,291.7c-70.9-1.9-127.9-58.8-129.9-129.4c0-2,1.6-3.7,3.6-3.7h126.4c2,0,3.7,1.6,3.7,3.6
			l0,0V288C205.5,290,203.9,291.7,201.8,291.7L201.8,291.7"/>
		<path id="Path_31" class="st1" d="M171.2,364.3C169.4,292.7,111.7,235,40,233.2c-1.8,0-3.4,1.4-3.4,3.3v127.9
			c0,1.8,1.5,3.3,3.3,3.3h127.9C169.7,367.7,171.2,366.3,171.2,364.3L171.2,364.3"/>
		<path id="Path_32" class="st2" d="M85.9,113.4c-1.2,46.2-38.4,83.4-84.6,84.6c-1.2,0-2.2-0.9-2.2-2.1v-82.5c0-1.2,1-2.1,2.1-2.1
			h82.5C84.9,111.2,85.9,112.2,85.9,113.4L85.9,113.4"/>
		<circle id="Ellipse_21" class="st3" cx="124.9" cy="119.4" r="39.1"/>
		<path id="Subtraction_7" class="st4" d="M168.2,330.2c0,2.5,0.2,5.1,0.8,7.5c1,4.8,2.9,9.4,5.6,13.4c6.9,10.4,18.5,16.6,30.9,16.6
			v-75.1c-2.5,0-5,0.3-7.5,0.8c-12,2.5-22.1,10.8-26.9,22.2c-0.9,2.3-1.7,4.6-2.2,7C168.5,325.1,168.2,327.6,168.2,330.2
			L168.2,330.2L168.2,330.2z"/>
		<g>
			<path class="st5" d="M131.4,68.2c0,0-11.2,1.5-21,5.5c-14.5,6-0.6-9.2-0.6-9.2L93.7,54.3c0,0,7.7-0.2,12.7-3.3
				c17.4-11.2,27.3,9.5,28.4,12.3C135.9,66.1,131.4,68.2,131.4,68.2L131.4,68.2L131.4,68.2z"/>
			<g>
				<g>
					<path class="st6" d="M110.4,73.7c0,0.4,21.3-5.5,21.3-5.5l-1.8-4.8c-8.8-0.7-15,3.6-17.6,4.6c-7.3,3.7-0.3,0.8-2.4,3.2
						C104.1,71.1,110.4,73.7,110.4,73.7L110.4,73.7L110.4,73.7z"/>
					<path class="st7" d="M110.3,73.3c2.1-2.4,3.3-5.5,2.3-8.7c-1.9,0.7-3.7,1.8-5.2,3.2C109.7,68.6,110.4,71.3,110.3,73.3z"/>
					
						<linearGradient id="Path_572_00000152983565855173185410000012530656463824510606_" gradientUnits="userSpaceOnUse" x1="-1806.0469" y1="125.7287" x2="-1806.4175" y2="125.9707" gradientTransform="matrix(31.964 16.1672 -7.0771 13.992 58756.6836 27505.625)">
						<stop  offset="0" style="stop-color:#FD9A00"/>
						<stop  offset="1" style="stop-color:#FFBF2E"/>
					</linearGradient>
					<path id="Path_572" style="fill:url(#Path_572_00000152983565855173185410000012530656463824510606_);" d="M131.4,68.2
						l12.8,1.4l-9.8-7.6l-4.7,1.5L131.4,68.2z"/>
					<path id="Path_573" class="st9" d="M131.4,68.2l12.8,1.4l-14.6-6.1L131.4,68.2L131.4,68.2z"/>
					<path id="Path_578" class="st10" d="M134.4,62c0,0-6.9-20.8-31.7-14.8l0.7,0.2c11,2.7,21.4,7.6,30.5,14.3L134.4,62L134.4,62
						L134.4,62z"/>
					<path d="M119.8,60.4c0.2,0.4,0.5,0.8,0.9,1.1c1.2,0.8,2.9,0.5,3.7-0.7c0.8-1.2,0.5-2.9-0.7-3.7c-1.2-0.8-2.9-0.5-3.7,0.7
						c-0.2,0.3-0.4,0.7-0.4,1.1C119.5,59.4,119.6,59.9,119.8,60.4z"/>
					<path class="st11" d="M119.8,60.4c0.2,0,0.3-0.1,0.4-0.2c0.3-0.3,0.3-0.8,0-1.1c-0.1-0.1-0.3-0.2-0.5-0.2c0,0-0.1,0-0.1,0
						C119.5,59.4,119.6,59.9,119.8,60.4L119.8,60.4z"/>
					<path id="Path_578-2" class="st12" d="M134.4,62c0,0-7.2-13.2-31.8-12.3c0,0,8,1.6,13,3.1c4.1,1.1,9.5,3.1,18.3,8.9L134.4,62
						L134.4,62L134.4,62z"/>
				</g>
				
					<linearGradient id="Path_576_00000001650603118488221310000014868974153037949859_" gradientUnits="userSpaceOnUse" x1="3601.0752" y1="99.1967" x2="3553.5945" y2="116.8791" gradientTransform="matrix(0.2002 -0.9798 -0.9798 -0.2002 -522.7483 3605.635)">
					<stop  offset="0" style="stop-color:#3D00FA"/>
					<stop  offset="1" style="stop-color:#1F057E"/>
				</linearGradient>
				<path id="Path_576" style="fill:url(#Path_576_00000001650603118488221310000014868974153037949859_);" d="M60.9,111
					c4.1-16.4,8.6-36.1,16.1-47.8c16.4-25.7,45.5,0.2,27.7,20.9c-6.1,7.1-14.7,12.6-23.8,17.1L60.9,111L60.9,111z"/>
				
					<linearGradient id="Path_570_00000093866069260355245480000003064483768419444366_" gradientUnits="userSpaceOnUse" x1="-1842.7456" y1="89.0198" x2="-1843.2372" y2="89.6777" gradientTransform="matrix(-59.1093 -58.1677 40.2608 -40.9125 -112468.5859 -103483.9375)">
					<stop  offset="0" style="stop-color:#3D00FA"/>
					<stop  offset="1" style="stop-color:#1F057E"/>
				</linearGradient>
				<path id="Path_570" style="fill:url(#Path_570_00000093866069260355245480000003064483768419444366_);" d="M86.2,54.7l-51.3,8.5
					l55.6,9.7C90.6,72.8,96.2,62.5,86.2,54.7L86.2,54.7L86.2,54.7z"/>
				
					<linearGradient id="SVGID_1_" gradientUnits="userSpaceOnUse" x1="-2974.6047" y1="568.575" x2="-3005.0305" y2="598.2218" gradientTransform="matrix(-0.9997 -2.303644e-02 -2.303644e-02 0.9997 -2886.2864 -587.3544)">
					<stop  offset="0" style="stop-color:#3D00FA"/>
					<stop  offset="1" style="stop-color:#6E00FF"/>
				</linearGradient>
				<path class="st15" d="M61.4,63.6c-0.1,3.2,5,5.7,7.3,6.9c5.4,2.8,11.1,4.9,17,6.3c4.2,1,8.5,1.6,12.8,1.2
					c4.3-0.4,8.6-1.7,11.9-4.4c0.5-0.4,1-0.9,1.5-1.3c2.2-2.3,3.5-5.4,2.7-8.6c0,0,0-0.1,0-0.1c-1.1-4-4.8-7.5-8.3-9.3
					c-8.1-4.2-18.3-3-26.8-0.8c-4.8,1.3-9.7,3-14,5.5C63.9,60.1,61.5,61.5,61.4,63.6L61.4,63.6L61.4,63.6z"/>
				<path id="Path_576-2" class="st16" d="M52.7,27.3C69,31.9,88.5,37,99.9,44.8c25.2,17.2-1.6,45.5-21.8,27.1
					c-6.9-6.3-12.1-15.1-16.3-24.4L52.7,27.3z"/>
			</g>
		</g>
	</g>
</g>
</svg>
