<?xml version="1.0" encoding="UTF-8"?><svg id="Layer_1" xmlns="http://www.w3.org/2000/svg" xmlns:xlink="http://www.w3.org/1999/xlink" viewBox="0 0 470 239"><defs><style>.cls-1,.cls-2,.cls-3{fill:none;}.cls-2{stroke-width:.57px;}.cls-2,.cls-3{stroke:#849eff;stroke-miterlimit:10;}.cls-4{fill:url(#linear-gradient);}.cls-5{clip-path:url(#clippath);}.cls-6{fill:#fff;}.cls-7{fill:#b6c6ff;}.cls-8{fill:#6e00ff;}.cls-9{fill:#889efd;}.cls-10{fill:#96abff;opacity:.2;}.cls-10,.cls-11,.cls-12,.cls-13{isolation:isolate;}.cls-11{fill:#ff3100;opacity:.22;}.cls-12{fill:#b0abf7;opacity:.9;}.cls-13{fill:#afb7f6;opacity:.6;}.cls-14{fill:url(#linear-gradient-3);}.cls-15{fill:url(#linear-gradient-4);}.cls-16{fill:url(#linear-gradient-2);}.cls-3{stroke-width:1.15px;}</style><linearGradient id="linear-gradient" x1="-1420.49" y1="142.52" x2="-1421.6" y2="141.8" gradientTransform="translate(-50813.05 1543.82) rotate(-179.15) scale(35.82 15.68)" gradientUnits="userSpaceOnUse"><stop offset="0" stop-color="#fd9a00"/><stop offset="1" stop-color="#ffbf2e"/></linearGradient><linearGradient id="linear-gradient-2" x1="3217.82" y1="597.43" x2="3144.75" y2="526.23" gradientTransform="translate(-2524.89 1852.3) rotate(-21.88) scale(1 -1)" gradientUnits="userSpaceOnUse"><stop offset="0" stop-color="#3d00fa"/><stop offset="1" stop-color="#6e00ff"/></linearGradient><linearGradient id="linear-gradient-3" x1="-1319.7" y1="128.08" x2="-1321.23" y2="126.03" gradientTransform="translate(107672.79 -22395.08) rotate(-8.06) scale(82.93 57.4)" gradientUnits="userSpaceOnUse"><stop offset="0" stop-color="#3d00fa"/><stop offset="1" stop-color="#1f057e"/></linearGradient><linearGradient id="linear-gradient-4" x1="-1317.71" y1="368.97" x2="-1429.82" y2="327.21" gradientTransform="translate(-806.65 1058.84) rotate(152.55)" xlink:href="#linear-gradient-3"/><clipPath id="clippath"><rect class="cls-1" y="0" width="470.13" height="238.83"/></clipPath></defs><g id="Layer_1-2"><g><g><path class="cls-7" d="M204.04,113.54s32.44-59.4-53.99-61.35c-17.57-.4-38.99,6.25-39.55,12.23-1.22,13.14,41.05,32.39,41.05,32.39l17.31,51.96,24.38-17.54,10.79-17.69h.01Z"/><g><path class="cls-9" d="M161.43,111.02c-8.84,.34,20.79,17.39,13.73,22.3-1.06,.74-16.76,11.98-17.78,12.79l-4.95-14.18c-7.23-20.71-20.44-38.8-37.97-51.99h0l11.14-10.08c13.31,4.53,31.38,28.11,35.83,41.15h0Z"/><path id="Path_572" class="cls-4" d="M114.47,79.94l-35.45-14.01,36.18-6.4,10.39,10.33-11.13,10.08h0Z"/><path id="Path_573" class="cls-11" d="M114.47,79.94l-35.45-14.01,46.58,3.93s-11.13,10.08-11.13,10.08Z"/><path id="Path_578" class="cls-8" d="M115.25,59.56s46.7-44.99,103.34,4.74l-2.05-.5c-32.49-7.97-66.22-9.52-99.3-4.54,0,0-1.99,.3-1.99,.3Z"/><path d="M147.42,76.26c3.97,1.8,8.66,.05,10.46-3.93,.61-1.34,.81-2.77,.65-4.14-.17-1.53-.78-2.99-1.77-4.17-.74-.89-1.69-1.63-2.81-2.14-3.97-1.81-8.66-.05-10.46,3.93-1.81,3.97-.05,8.65,3.93,10.46h0Z"/><path class="cls-6" d="M157.1,68.28c.5,.14,1,.09,1.43-.09-.17-1.53-.78-2.99-1.77-4.17-.04,.02-.08,.03-.12,.06-.54,.28-.97,.78-1.14,1.42-.33,1.21,.38,2.46,1.59,2.78h.01Z"/><path id="Path_578-2" class="cls-2" d="M115.25,59.56s36.93-24.6,100.13,11.55c0,0-23.15-6.65-38.12-9.81-12.25-2.59-29-4.98-60.13-1.92,0,0-1.88,.18-1.88,.18Z"/></g><path class="cls-16" d="M266.63,191.43c-35.46,9.64-79.51,4.73-101.96-19.28-12.68-13.55-15.69-33.53-11.45-51.25,.3-1.26,.64-2.51,1.01-3.75,2.5-8.23,7.17-16.1,13.9-21.84,1.02-.87,2.09-1.7,3.21-2.47,19.24-13.25,40.44-8.23,58.2,2.92,3.15,1.98,30.52,65.29,40.25,80.12,10.07,15.36,5.7,13.15-3.16,15.56h0Z"/><path id="Path_570" class="cls-14" d="M252.78,146.18l103.54,90.21-163.83-90.23c19.34,1.09,40.31,.6,60.29,.02h0Z"/><path id="Path_576" class="cls-15" d="M349.97,118.36c-36.31,16.8-79,37.84-111.49,41.49-71.6,8.04-67.29-83.87-2.88-81.95,22.08,.66,44.98,8.33,66.74,18.4l47.63,22.05h0Z"/><path id="Path_576-2" class="cls-3" d="M340.13,167.58c-39.99,1.14-87.51,3.67-118.82-5.77-68.98-20.81-28.82-103.6,29.63-76.45,20.03,9.3,38.07,25.37,54.09,43.2l35.09,39.03h.01Z"/></g><g class="cls-5"><g id="Mask_Group_96"><g id="Group_12030"><path id="Path_19916" class="cls-10" d="M-813.25,318.88c13.45,.2,26.35,7.26,33.36,18.83,4.22-2.86,8.62-3.85,13.34-4.1,4.12-.21,8.63,1.16,12.36,3.39,2.73-2.6,6.35-4.06,10.13-4.09,7.66-.08,14.57,5.89,14.72,13.71,.04,1.93-.35,3.84-1.13,5.6,7.01,3.84,11.79,11.14,11.96,19.19,.07,3.21-.59,6.39-1.92,9.31,2.7,.38,5.36,1.03,7.93,1.93,1.93-6.61,8.2-11.02,14.99-11.21,8.28-.24,16.09,6.02,16.38,14.53,.22,6.41-4.01,12.12-9.92,14.41,1.29,2.31,2.33,4.75,3.08,7.28,11.42-6.45,24.16-10.21,37.24-11.01,26.06-1.58,53.16,11,68.01,33.27,8.43-15.93,22.85-28.27,39.56-34.83-1.58-2.73-2.54-5.77-2.8-8.91-1.07-12.75,9.44-23.46,21.8-24.6,5.43-.51,10.89,.77,15.52,3.67,6.67-6.79,15.49-11.05,24.95-12.07,16.71-1.81,33.87,7.01,40.7,22.65,1.65-.71,3.33-1.36,5.05-1.96,1.06-20.83,17.17-38.18,37.16-42.85,.58-11.02,9.47-19.99,20.23-21.6,6.5-.97,13.12,.74,18.33,4.74,5.93-5.82,13.52-9.67,21.72-11.01,20.1-3.32,40.95,9.57,44.64,30.1,.94,5.28,.68,10.71-.77,15.88,9.35,1.8,18.44,4.75,27.06,8.79,9.95-21.96,30.92-38.28,54.08-42.76,7.03-1.32,14.19-1.84,21.35-1.56-2.15-12.16,6.52-23.65,18.29-26.35,3.74-.86,7.63-.84,11.35,.08,.87-6.52,5.68-11.82,12.08-13.32,8.03-1.92,16.74,2.74,18.76,10.92v.04c.54-.15,1.06-.3,1.6-.43,5.37-1.33,10.91-1.76,16.42-1.27-3.67-19.57,9.7-38.56,28.56-43.62,17.24-4.62,36.55,3.06,44.71,19.23,9.56-11.37,22.56-19.99,36.62-23.98,10.5-3.09,21.53-3.97,32.39-2.59-.81-1.18-1.44-2.48-1.87-3.86-2.5-8.02,2.48-16.52,10.34-19.03,1.36-.43,2.77-.69,4.19-.75-.4-10.3,6.51-19.69,16.22-22.9,11.74-3.88,25.26,2.11,29.3,14,1.29,3.83,1.5,7.94,.61,11.88,5.62-.43,11.26-.24,16.84,.58-.73-16.83,10.41-32.25,26.09-37.91,17.44-6.3,38.16,.43,47.19,16.99,2.47-1.18,5.02-2.32,7.6-3.26,12.49-4.55,25.72-6.74,39.01-6.46,.08-6.47,4.06-12.25,10.08-14.63,3.71-1.5,7.85-1.59,11.63-.24,2.71-4.77,6.94-8.5,12.01-10.6,7.92-3.32,17.01-2.21,23.9,2.92-.02-.04-.04-.09-.06-.13-3.29-7.82,.98-16.75,8.58-20.02,7.6-3.28,17.04-.25,20.45,7.51,.33,.77,.6,1.56,.8,2.37,5.42-.52,10.89-.14,16.19,1.13,2.02-11.18,9.77-20.7,20.05-25.4,3.39-1.55,7-2.57,10.7-3.01-1.23-16.03,8.35-31.27,22.7-38.13,.67-.32,1.34-.61,2.01-.9-.41-.66-.78-1.34-1.11-2.03-5.46-11.38,.12-25.1,11.22-30.55,9.48-4.65,21.43-2.56,28.28,5.62,7.37-12.52,18.05-22.13,30.53-28.88,1.07-.58,2.2-1.11,3.3-1.62,5.11-9.87,14.83-16.52,25.88-17.72-1.14-6.64,2.08-13.27,8.01-16.48,.1-.05,.2-.1,.3-.15-.05-.09-.1-.17-.15-.26-6.3-11.6-1.42-26.31,9.94-32.65,1.22-.68,2.5-1.26,3.82-1.72-2.34-8.24,2.45-16.82,10.7-19.16,4.7-1.33,9.76-.37,13.65,2.6,12.79-16.13,34.45-22.29,53.82-15.31,.54-3.73,2.4-7.14,5.25-9.6-.78-.73-1.46-1.56-2.01-2.47-3.41-5.68-1.35-13.13,4.24-16.57,2.73-1.69,6.02-2.25,9.15-1.56,2.66-4.75,5.19-7.93,9.43-10.89,1.16-.77,2.41-1.41,3.71-1.91l81.34,303.55L-787.07,580.61l-63.54-237.14c5.79-14.94,21.2-24.8,37.36-24.56v-.03Z"/><path id="Path_19917" class="cls-13" d="M-827.28,378.91c18.36-7.16,37.43-11.1,56.79-11.08,7.08,.07,14.15,.57,21.17,1.5,8.73-16.7,26.55-27.2,45.27-27.66,19.94-.49,39.38,10.53,48.22,28.6,3.83-1.81,7.85-3.17,11.99-4.06-.04-.43-.07-.86-.09-1.29-.66-14.18,11.18-25.91,25.05-26.7,11.24-.64,22.24,5.96,26.32,16.57,9.01-8.39,20.27-12.85,32.11-14.04,18.52-1.86,38.03,7.45,48.28,23.6,8.08-6.21,17.72-10.07,27.86-11.15,16.73-1.79,33.89,4.24,45.43,16.59,8.23-6.91,18-10.84,28.3-12.44,20.69-3.22,43.29,6.99,53.96,25.78,2.28,.33,4.54,.71,6.79,1.14,12.46-29.67,40.53-51.48,71.69-56.89,21.63-3.75,44.04-.91,63.84,9.59,4.48-8.47,9.67-16.53,15.53-24.1-7.47-3.17-12.95-9.76-14.71-17.68-2.93-13.77,6.56-27.33,20.09-30.36,.43-.1,.87-.18,1.3-.26,2.77-20.44,18.46-37.41,38.42-42.26,25.93-6.31,53.8,9.18,60.68,35.29,.12,.46,.24,.93,.34,1.39,7.57-.35,15.16-.11,22.7,.74,2.39-13.17,12.51-23.96,25.33-27.62,17.57-5.01,37.24,4.37,43,22.04,2.37-.98,4.8-1.86,7.31-2.62,32.33-9.79,69.77,3.46,85.74,33.98,5.56-11.99,15.76-21.19,28.26-25.48,22.66-7.85,49.98,2.26,58.51,25.58,.06,.17,.11,.34,.17,.51,1.14-.46,2.29-.93,3.44-1.34,8.76-3.17,17.89-5.21,27.17-6.07-5.08-25.02,10.82-49.73,33.89-58.97,17.58-7.04,38.36-4.99,53.58,6.55,.17-.12,.34-.25,.52-.37-10.9-26.15,3.96-55.9,29.02-67.04,5.54-2.46,11.43-4.02,17.46-4.61,1.17-9.22,7.33-17.22,15.71-21.1,10.66-4.93,24.01-2.65,31.67,6.5,2.55-2.53,5.35-4.81,8.34-6.8-.16-.33-.33-.66-.49-.99-12.14-25.33,.79-56.67,25-68.19,9.9-4.71,20.75-6.91,31.98-5.35,.99-8.91,6.34-16.76,14.27-20.94,12.29-6.5,28.51-2.6,35.28,9.9,.5,.94,.95,1.9,1.32,2.9,15.69-6.15,32.14-9.02,48.99-7.16,13.1-20.72,30.22-37.9,50.91-50.27,9.19-5.47,18.94-9.94,29.08-13.34l54.99,205.23L-787.07,580.57l-58.8-219.43c8.41,2.29,15.96,9.04,18.58,17.76h.01Z"/><path id="Path_19918" class="cls-12" d="M-825.77,331.82c21.73,3.23,38.94,23.28,35.65,45.62-.15,1.04-.36,2.06-.6,3.07,3.73,1.43,7.29,3.27,10.61,5.48,1.38-2.16,3.09-4.1,5.07-5.74-3.57-3.48-5.28-8.45-4.61-13.4,1.3-9.05,10.25-15.04,19.13-13.96,8.85,1.08,15.95,9.04,14.78,18.11-.23,1.79-.78,3.53-1.61,5.14,6.58,2.7,11.72,8.04,14.18,14.72,8.8-7.64,19.13-13.3,30.3-16.62,23.41-6.77,48.95-4.1,70.11,9.22-.41-1.65-.54-3.35-.39-5.04,.82-9.14,9.46-15.58,18.39-14.98,5.56,.35,10.61,3.35,13.56,8.07,1.77-.9,3.61-1.68,5.49-2.34,20.98-7.32,46.05,2.24,54.6,23.29,4.86,12.17,3.18,25.98-4.47,36.62,3.49,2.61,6.75,5.51,9.76,8.66,5.09-1.6,10.36-2.59,15.68-2.95,8.81-14.98,25.07-24.58,42.26-26.13-.66-2.03-.94-4.16-.82-6.29,.59-10.43,10.26-18,20.42-17.72,7.38,.2,14.37,4.51,17.33,11.37,3.49-1.42,7.22-2.11,10.99-2.04,3.37,.05,6.71,.73,9.84,2,7.55-14.48,23.27-23.36,39.47-23.36,22.02-.01,42.57,17.05,42.4,39.91-.06,5.84-1.45,11.59-4.07,16.81,9.83,3.32,19.12,8.07,27.57,14.09,15.71-22.23,41.47-35.11,67.55-36.37,7.91-.39,15.84,.28,23.58,1.97,.13-13.64,12.11-24.2,25.26-25.08,4.22-.29,8.46,.39,12.38,2,2.17-6.92,8.72-11.67,15.86-12.23,8.93-.7,18.19,5.94,18.34,14.82v.04c.61-.07,1.22-.16,1.82-.2,6.11-.47,12.25,0,18.22,1.37-.09-22.07,18.74-39.73,39.99-42.02,5.49-.6,11.04-.2,16.38,1.18-.42-1.87-.72-3.77-.9-5.68-2.55-27.56,19.66-51.43,46.31-54.98,3.19-.42,6.41-.56,9.63-.43,2.31-3.84,5.97-6.66,10.27-7.91,1.5-.44,3.06-.68,4.62-.73-.12-11.26,7.87-21.19,18.49-24.42,12.8-3.9,27.57,2.58,31.7,15.69,1.3,4.17,1.41,8.62,.31,12.85,6.17-.28,12.34,.03,18.45,.93-.31-18.4,12.56-34.74,29.71-40.53,19.05-6.43,41.7,.85,51.27,19.11,2.74-1.24,5.56-2.42,8.42-3.42,13.8-4.76,28.36-6.94,42.95-6.44,.14-7.04,4.94-13.22,11.43-15.7,4.1-1.58,8.63-1.62,12.75-.11,3.12-5.15,7.84-9.13,13.44-11.33,8.61-3.41,18.75-2.31,26.11,3.43-.02-.05-.04-.09-.06-.14-3.46-8.6,1.62-18.16,9.91-21.57s18.63-.21,22.23,8.32c.35,.83,.62,1.7,.82,2.58,2.41-.21,4.83-.25,7.25-.14,7.23-14.23,20.1-23.77,34.8-28.22,15.23-4.61,33.05-1.78,46.18,7.99,7.45-8.82,19.91-12.78,31.01-9.4,1.46,.45,2.89,1.02,4.25,1.71,4.53-6.76,12.86-9.87,20.71-7.73,6.49,1.82,11.06,7.63,11.3,14.37,4.18-.39,8.38-.31,12.54,.24,3.62-8.08,10.27-15,18.04-18.6,4.36-1.97,8.98-3.32,13.71-4.01-1.08-7.43,3.3-14.62,9.85-17.98,.11-.06,.23-.11,.34-.17-.05-.1-.11-.19-.16-.29-6.77-13.17,.28-29.03,12.82-35.64,1.41-.74,2.88-1.37,4.38-1.88-2-7.7,2.19-15.67,9.04-19.36,6.03-3.24,13.65-2.98,19.14,1.25,4.57-5,9.86-9.29,15.68-12.74,13.31-7.78,30.6-9.47,45.52-4.13,.83-4.14,3.08-7.86,6.35-10.53-.84-.79-1.56-1.7-2.13-2.7-3.71-6.43-.63-14.53,5.54-18.16,3.11-1.85,6.8-2.47,10.35-1.75,4.14-8.37,12.09-14.21,21.32-15.66l40.13,149.78L-787.11,580.59l-65.44-244.24c8.22-4.27,17.57-5.85,26.73-4.53h.05Z"/></g></g></g></g></g></svg>