<?xml version="1.0" encoding="UTF-8"?><svg id="Layer_2" xmlns="http://www.w3.org/2000/svg" xmlns:xlink="http://www.w3.org/1999/xlink" viewBox="0 0 206.42 341.46"><defs><style>.cls-1{fill:url(#linear-gradient);}.cls-1,.cls-2,.cls-3,.cls-4,.cls-5,.cls-6,.cls-7,.cls-8,.cls-9,.cls-10,.cls-11,.cls-12,.cls-13,.cls-14,.cls-15{stroke-width:0px;}.cls-2{fill:#ff3100;isolation:isolate;opacity:.22;}.cls-16{stroke-width:.59px;}.cls-16,.cls-17{stroke:#849eff;stroke-miterlimit:10;}.cls-16,.cls-17,.cls-18{fill:none;}.cls-17{stroke-width:.29px;}.cls-3{fill:url(#linear-gradient-4);}.cls-4{fill:url(#linear-gradient-2);}.cls-5{fill:url(#linear-gradient-3);}.cls-18{stroke:#381bf1;stroke-width:1.07px;}.cls-7{fill:#fa5862;}.cls-8{fill:#651fff;}.cls-9{fill:#889efd;}.cls-10{fill:#6e00ff;}.cls-11{fill:#3671ff;}.cls-12{fill:#c7b6ff;}.cls-13{fill:#b6c6ff;}.cls-14{fill:#fff;}.cls-15{fill:#fbc251;}</style><linearGradient id="linear-gradient" x1="-1805.14" y1="98.91" x2="-1805.51" y2="99.15" gradientTransform="translate(58538.71 27839.33) rotate(26.83) scale(35.82 15.68)" gradientUnits="userSpaceOnUse"><stop offset="0" stop-color="#fd9a00"/><stop offset="1" stop-color="#ffbf2e"/></linearGradient><linearGradient id="linear-gradient-2" x1="3601.99" y1="72.38" x2="3554.5" y2="90.06" gradientTransform="translate(-548.3 3574.34) rotate(-78.45) scale(1 -1)" gradientUnits="userSpaceOnUse"><stop offset="0" stop-color="#3d00fa"/><stop offset="1" stop-color="#1f057e"/></linearGradient><linearGradient id="linear-gradient-3" x1="-1841.84" y1="62.2" x2="-1842.33" y2="62.86" gradientTransform="translate(-111334.18 -104555.01) rotate(-135.46) scale(82.93 57.4)" gradientUnits="userSpaceOnUse"><stop offset="0" stop-color="#3d00fa"/><stop offset="1" stop-color="#1f057e"/></linearGradient><linearGradient id="linear-gradient-4" x1="-2973.69" y1="541.76" x2="-3004.12" y2="571.4" gradientTransform="translate(-2885.08 -587.34) rotate(-178.68) scale(1 -1)" gradientUnits="userSpaceOnUse"><stop offset="0" stop-color="#3d00fa"/><stop offset="1" stop-color="#6e00ff"/></linearGradient></defs><g id="Layer_1-2"><path id="Path_29" class="cls-7" d="M202.67,264.84c-70.86-1.94-127.93-58.82-129.88-129.43-.04-2.02,1.57-3.69,3.6-3.73h126.36c2.02,0,3.66,1.63,3.66,3.65h0v125.84c0,2.02-1.64,3.67-3.68,3.67h-.07"/><path id="Path_31" class="cls-18" d="M172.08,337.53c-1.78-71.62-59.52-129.36-131.14-131.13-1.85-.03-3.37,1.45-3.39,3.3v127.91c0,1.83,1.48,3.32,3.31,3.32h127.87c1.85,0,3.34-1.49,3.35-3.34v-.06"/><path id="Path_32" class="cls-11" d="M86.77,86.59c-1.17,46.22-38.36,83.41-84.58,84.58-1.19.02-2.17-.94-2.19-2.13v-82.49c0-1.18.96-2.14,2.14-2.14h82.48c1.19,0,2.16.96,2.16,2.15v.04"/><circle id="Ellipse_21" class="cls-15" cx="125.82" cy="92.63" r="39.05"/><path id="Subtraction_7" class="cls-8" d="M169.11,303.36c0,2.54.25,5.06.76,7.55.98,4.8,2.88,9.35,5.61,13.4,6.95,10.35,18.53,16.57,30.94,16.61v-75.12c-2.53.01-5.05.28-7.52.79-12.02,2.52-22.05,10.81-26.85,22.18-.95,2.27-1.68,4.62-2.17,7.03-.5,2.48-.76,5.01-.76,7.55h0Z"/><path class="cls-13" d="M132.31,41.38s-11.16,1.47-21.02,5.52c-14.51,5.97-.61-9.21-.61-9.21l-16.09-10.19s7.72-.15,12.66-3.34c17.39-11.21,27.29,9.47,28.41,12.3,1.12,2.83-3.35,4.91-3.35,4.91h0Z"/><path class="cls-9" d="M111.29,46.9c-.04.44,21.27-5.53,21.27-5.53l-1.75-4.77c-8.82-.67-15.02,3.59-17.61,4.6-7.3,3.69-.26.76-2.36,3.18-5.79-.07.45,2.47.45,2.53h0Z"/><path class="cls-12" d="M111.2,46.5c2.09-2.41,3.25-5.53,2.27-8.74-1.93.75-3.71,1.84-5.15,3.21,2.3.76,2.99,3.51,2.88,5.52Z"/><path id="Path_572" class="cls-1" d="M132.31,41.38l12.83,1.38-9.85-7.61-4.74,1.46,1.75,4.77Z"/><path id="Path_573" class="cls-2" d="M132.31,41.38l12.83,1.38-14.59-6.15,1.75,4.77h0Z"/><path id="Path_578" class="cls-10" d="M135.28,35.15s-6.93-20.84-31.73-14.83l.7.17c11,2.72,21.36,7.56,30.49,14.26l.55.4h0Z"/><path class="cls-6" d="M120.75,33.58c.2.42.51.79.93,1.07,1.23.82,2.89.48,3.71-.74.82-1.23.48-2.89-.74-3.71-1.23-.82-2.89-.48-3.71.74-.23.35-.37.73-.42,1.12-.08.51.02,1.04.23,1.51Z"/><path class="cls-14" d="M120.75,33.58c.16-.03.31-.11.43-.23.29-.31.27-.79-.04-1.09-.14-.14-.33-.2-.51-.2h-.12c-.08.51.02,1.04.23,1.51h0Z"/><path id="Path_578-2" class="cls-17" d="M135.28,35.15s-7.21-13.19-31.85-12.29c0,0,7.99,1.65,12.98,3.06,4.08,1.15,9.48,3.07,18.33,8.88l.54.35h0Z"/><path id="Path_576" class="cls-4" d="M61.84,84.2c4.14-16.43,8.6-36.09,16.06-47.75,16.43-25.71,45.54.2,27.74,20.89-6.1,7.09-14.73,12.58-23.85,17.06l-19.95,9.8h0Z"/><path id="Path_570" class="cls-5" d="M87.15,27.88l-51.32,8.48,55.64,9.67s5.65-10.3-4.33-18.14h0Z"/><path class="cls-3" d="M62.28,36.79c-.14,3.21,4.96,5.73,7.31,6.94,5.38,2.81,11.1,4.94,17.01,6.33,4.18.98,8.5,1.6,12.78,1.25,4.28-.36,8.55-1.73,11.92-4.4.51-.41,1.01-.85,1.46-1.33,2.2-2.32,3.49-5.38,2.65-8.63,0-.04-.02-.08-.03-.11-1.08-3.97-4.76-7.49-8.26-9.29-8.15-4.19-18.28-3.04-26.8-.78-4.77,1.26-9.73,2.97-13.96,5.54-1.55.94-3.99,2.42-4.08,4.49h0Z"/><path id="Path_576-2" class="cls-16" d="M53.62.46c16.29,4.66,35.8,9.73,47.23,17.55,25.18,17.24-1.63,45.51-21.75,27.07-6.9-6.32-12.12-15.12-16.31-24.37L53.62.46Z"/></g></svg>