<?xml version="1.0" encoding="utf-8"?>
<!-- Generator: Adobe Illustrator 28.3.0, SVG Export Plug-In . SVG Version: 6.00 Build 0)  -->
<svg version="1.1" id="Layer_2_00000102521614345937163430000004666227692038730378_"
	 xmlns="http://www.w3.org/2000/svg" xmlns:xlink="http://www.w3.org/1999/xlink" x="0px" y="0px" viewBox="0 0 206.4 341.5"
	 style="enable-background:new 0 0 206.4 341.5;" xml:space="preserve">
<style type="text/css">
	.st0{fill:#FBC251;}
	.st1{fill:#B6C6FF;}
	.st2{fill:#889EFD;}
	.st3{fill:#C7B6FF;}
	.st4{fill:url(#Path_572_00000033347738159806816070000014135295093794832563_);}
	.st5{opacity:0.22;fill:#FF3100;enable-background:new    ;}
	.st6{fill:#6E00FF;}
	.st7{fill:#FFFFFF;}
	.st8{fill:none;stroke:#849EFF;stroke-width:0.29;stroke-miterlimit:10;}
	.st9{fill:url(#Path_576_00000101084528246172364090000017006430736639888268_);}
	.st10{fill:url(#Path_570_00000125567753796130076350000003941528372664046996_);}
	.st11{fill:url(#SVGID_1_);}
	.st12{fill:none;stroke:#849EFF;stroke-width:0.59;stroke-miterlimit:10;}
	.st13{fill:#3671FF;}
</style>
<g id="Layer_1-2">
	<circle id="Ellipse_21" class="st0" cx="170.9" cy="29.7" r="84.9"/>
	<path class="st1" d="M124.8,59.4c0,0-9.5,6-16.8,13.8c-10.7,11.5-4.4-8.1-4.4-8.1l-18.9-2.6c0,0,7-3.4,10.1-8.3
		c11.1-17.4,28.8-2.8,31-0.7C127.9,55.6,124.8,59.4,124.8,59.4L124.8,59.4L124.8,59.4z"/>
	<path class="st2" d="M108,73.2c0.1,0.4,17-13.9,17-13.9l-3.6-3.6c-8.3,3.1-12.2,9.5-14.1,11.5c-5.1,6.4,0.1,0.8-0.8,3.9
		C101.2,73.4,107.9,73.1,108,73.2L108,73.2L108,73.2z"/>
	<path class="st3" d="M107.7,72.8c0.9-3.1,0.6-6.4-1.6-8.9c-1.4,1.5-2.6,3.2-3.3,5.1C105.2,68.7,107,70.9,107.7,72.8L107.7,72.8z"/>
	
		<linearGradient id="Path_572_00000052103066301909758890000015902067928228043962_" gradientUnits="userSpaceOnUse" x1="-1803.8511" y1="175.587" x2="-1804.2213" y2="175.3468" gradientTransform="matrix(35.7939 1.3662 0.598 -15.6686 64592.2031 5270.1416)">
		<stop  offset="0" style="stop-color:#FD9A00"/>
		<stop  offset="1" style="stop-color:#FFBF2E"/>
	</linearGradient>
	<path id="Path_572" style="fill:url(#Path_572_00000052103066301909758890000015902067928228043962_);" d="M124.8,59.4l12.2-4.1
		l-12.1-2.8l-3.7,3.3L124.8,59.4L124.8,59.4z"/>
	<path id="Path_573" class="st5" d="M124.8,59.4l12.2-4.1l-15.8,0.5L124.8,59.4L124.8,59.4L124.8,59.4z"/>
	<path id="Path_578" class="st6" d="M124.9,52.5c0,0-15-16.1-35-0.2l0.7-0.1c11.1-2.1,22.6-2,33.7,0.2L124.9,52.5L124.9,52.5
		L124.9,52.5z"/>
	<path d="M111,57.1c0.4,0.3,0.8,0.5,1.3,0.6c1.5,0.2,2.8-0.8,3.1-2.2c0.2-1.5-0.8-2.8-2.2-3.1c-1.5-0.2-2.8,0.8-3.1,2.2
		c-0.1,0.4,0,0.8,0.1,1.2C110.3,56.3,110.6,56.8,111,57.1L111,57.1z"/>
	<path class="st7" d="M111,57.1c0.1-0.1,0.2-0.2,0.3-0.4c0.1-0.4-0.1-0.8-0.5-1c-0.2-0.1-0.4,0-0.5,0l-0.1,0.1
		C110.3,56.3,110.6,56.8,111,57.1L111,57.1L111,57.1z"/>
	<path id="Path_578-2" class="st8" d="M124.9,52.5c0,0-12.1-9-34.1,2.1c0,0,8-1.8,13.1-2.6c4.2-0.7,9.9-1.2,20.4,0.4L124.9,52.5
		C124.9,52.5,124.9,52.5,124.9,52.5z"/>
	
		<linearGradient id="Path_576_00000003820961124638315600000005161142883544134568_" gradientUnits="userSpaceOnUse" x1="3674.0876" y1="153.9115" x2="3626.5977" y2="136.2315" gradientTransform="matrix(-0.2266 -0.974 0.974 -0.2266 775.2587 3675.8218)">
		<stop  offset="0" style="stop-color:#3D00FA"/>
		<stop  offset="1" style="stop-color:#1F057E"/>
	</linearGradient>
	<path id="Path_576" style="fill:url(#Path_576_00000003820961124638315600000005161142883544134568_);" d="M78.6,127.7
		c-3.1-16.7-7.2-36.4-5.3-50.1c4.2-30.2,41.5-18.8,33.9,7.4c-2.6,9-8.1,17.6-14.6,25.5L78.6,127.7L78.6,127.7z"/>
	
		<linearGradient id="Path_570_00000080889936179338451100000011612867410684334000_" gradientUnits="userSpaceOnUse" x1="-1837.932" y1="208.213" x2="-1838.422" y2="207.553" gradientTransform="matrix(-77.9802 -28.2219 -19.5338 53.974 -139216.8125 -63015.332)">
		<stop  offset="0" style="stop-color:#3D00FA"/>
		<stop  offset="1" style="stop-color:#1F057E"/>
	</linearGradient>
	<path id="Path_570" style="fill:url(#Path_570_00000080889936179338451100000011612867410684334000_);" d="M78.1,65.9L35,95
		l54.6-14.4C89.6,80.6,90.4,68.9,78.1,65.9L78.1,65.9L78.1,65.9z"/>
	
		<linearGradient id="SVGID_1_" gradientUnits="userSpaceOnUse" x1="-2938.9565" y1="-194.8169" x2="-2969.3899" y2="-224.4602" gradientTransform="matrix(-0.9183 0.3959 -0.3959 -0.9183 -2710.6958 1050.9548)">
		<stop  offset="0" style="stop-color:#3D00FA"/>
		<stop  offset="1" style="stop-color:#6E00FF"/>
	</linearGradient>
	<path class="st11" d="M59.2,84.4c1.2,3,6.9,3.1,9.5,3.3c6.1,0.3,12.1-0.1,18.1-1.3c4.2-0.9,8.4-2.1,12.1-4.2c3.7-2.1,7-5.1,9-9
		c0.3-0.6,0.6-1.2,0.8-1.8c1-3,0.9-6.3-1.2-8.9c0,0-0.1-0.1-0.1-0.1c-2.6-3.2-7.4-4.8-11.4-5c-9.2-0.4-17.9,4.9-24.7,10.5
		c-3.8,3.1-7.6,6.8-10.4,10.9C60,80.1,58.4,82.5,59.2,84.4L59.2,84.4L59.2,84.4z"/>
	<path id="Path_576-2" class="st12" d="M36.2,55c16.7-2.6,36.6-6.1,50.2-3.7c30.1,5.2,17.5,42-8.5,33.7c-8.9-2.9-17.3-8.7-25-15.3
		L36.2,55z"/>
</g>
<path id="Path_32" class="st13" d="M55.6,1.3C54.8,30.9,31,54.8,1.4,55.5C0.6,55.5,0,55,0,54.2V1.3C0,0.6,0.6,0,1.3,0h52.8
	C55-0.1,55.6,0.6,55.6,1.3L55.6,1.3"/>
</svg>
