<svg xmlns="http://www.w3.org/2000/svg" width="6.926mm" height="5.45mm" viewBox="0 0 19.633 15.449"><title>wedding</title><path d="M12.116,6.081a.75.75,0,1,0-.857,1.231,3.654,3.654,0,1,1-2.538-.619,3.6,3.6,0,0,1,.055.92A3.662,3.662,0,0,1,6.743,10.59.75.75,0,1,0,7.4,11.938a5.145,5.145,0,0,0-1.837-9.75A5.135,5.135,0,0,0,4.5,12.4a5.135,5.135,0,1,0,7.614-6.321Zm-10.6.935A3.628,3.628,0,0,1,8.138,5.27a5.138,5.138,0,0,0-3.18,2.1A5.084,5.084,0,0,0,4.085,10.8,3.636,3.636,0,0,1,1.512,7.016Z"/><path d="M18.923.881c-.06-.06-.122-.118-.189-.173A2.815,2.815,0,0,0,15.373.519a2.708,2.708,0,0,0-3.429.2,2.643,2.643,0,0,0-.452.494A2.677,2.677,0,0,0,12.069,4.9l3.279,3.279,3.3-3.3h0A2.82,2.82,0,0,0,18.923.881ZM17.664,3.745,15.348,6.056,13.089,3.8l-.1-.081a1.175,1.175,0,0,1-.277-1.639,1.319,1.319,0,0,1,.23-.244,1.2,1.2,0,0,1,.831-.333h.031a1.2,1.2,0,0,1,.845.375.84.84,0,0,1,.091.108l.567.767.612-.731a1.312,1.312,0,0,1,1.847-.164c.036.031.051.044.049.039a1.309,1.309,0,0,1-.151,1.847"/></svg>